<svg id="레이어_1" data-name="레이어 1" xmlns="http://www.w3.org/2000/svg" width="880" height="200" viewBox="0 0 880 200">
  <defs>
    <style>
      .cls-1 {
        fill: #c40000;
        opacity: 0;
      }

      .cls-2 {
        isolation: isolate;
      }
    </style>
  </defs>
  <g>
    <rect class="cls-1" width="880" height="200"/>
    <g>
      <g id="I_M_ON_IT_" data-name="I M ON IT " class="cls-2">
        <g class="cls-2">
          <path d="M341.2,496.4V412.3c0-1.7.8-2.5,2.4-2.5h12.9c1.5,0,2.3.8,2.3,2.5v84.1a2.1,2.1,0,0,1-2.3,2.4H343.6A2.1,2.1,0,0,1,341.2,496.4Z" transform="translate(-333 -374)"/>
          <path d="M376.4,413.8a8.8,8.8,0,0,1,2.7-6.5,8.4,8.4,0,0,1,6.2-2.5,8.3,8.3,0,0,1,6.4,2.6,9.4,9.4,0,0,1,2.6,7,31,31,0,0,1-.9,7.8,25.9,25.9,0,0,1-2.3,5.7,13.6,13.6,0,0,1-2.7,3.3,4,4,0,0,1-2.2,1.2,2.8,2.8,0,0,1-1.8-.6l-2.7-2.1c-.4-.2-.6-.7-.6-1.4a2,2,0,0,1,.6-1.5l.7-.9a5.8,5.8,0,0,0,.8-1.4,4.5,4.5,0,0,0,.4-2,8.7,8.7,0,0,1-5-3.1A8.8,8.8,0,0,1,376.4,413.8Z" transform="translate(-333 -374)"/>
          <path d="M450.6,494.9l-20-55.1-6.4,56.6q-.3,2.4-2.4,2.4H409.6c-1.7,0-2.5-.8-2.3-2.4l9.1-84.3a2.3,2.3,0,0,1,2.5-2.4h15.6a1.8,1.8,0,0,1,1.4.5,7.9,7.9,0,0,1,.8,1.6l21.5,59.4L479.3,412a7.4,7.4,0,0,1,.9-1.8,1.8,1.8,0,0,1,1.4-.5h15.9a2.3,2.3,0,0,1,2.5,2.4l9,84.3c.3,1.6-.5,2.4-2.2,2.4H494.5c-1.4,0-2.1-.7-2.4-2.2L486,439.8l-20.4,55.1a5.5,5.5,0,0,1-1.1,1.7,2,2,0,0,1-1.4.4H453a1.8,1.8,0,0,1-1.4-.4A3.3,3.3,0,0,1,450.6,494.9Z" transform="translate(-333 -374)"/>
          <path d="M646.4,454.3a44.2,44.2,0,0,1-3.6,17.8,44.7,44.7,0,0,1-24.5,24.3,46.1,46.1,0,0,1-35.7,0,44.6,44.6,0,0,1-24.2-24.3,47.3,47.3,0,0,1,0-35.7,45.4,45.4,0,0,1,24.2-24.3,46.1,46.1,0,0,1,35.7,0,45.6,45.6,0,0,1,24.5,24.3A44.4,44.4,0,0,1,646.4,454.3Zm-17.6,0a29.9,29.9,0,0,0-8.1-20.6,27,27,0,0,0-9-6.1,28.4,28.4,0,0,0-22.4,0,27.7,27.7,0,0,0-8.9,6.1,26.9,26.9,0,0,0-5.9,9.2,31.7,31.7,0,0,0,0,22.7,26.9,26.9,0,0,0,5.9,9.2,29.6,29.6,0,0,0,8.9,6.2,29.6,29.6,0,0,0,22.4,0,28.9,28.9,0,0,0,9-6.2,29.9,29.9,0,0,0,8.1-20.5Z" transform="translate(-333 -374)"/>
          <path d="M661.7,412.4a2.8,2.8,0,0,1,.6-1.8,2.6,2.6,0,0,1,2-.8h14a4.8,4.8,0,0,1,2,.4,2.9,2.9,0,0,1,1.5,1.4l39.5,56.8V411.6a2,2,0,0,1,1.1-1.4,3.4,3.4,0,0,1,1.5-.4h12.2a3.2,3.2,0,0,1,1.9.7,2.3,2.3,0,0,1,.9,1.9v83.8c0,1.8-.9,2.6-2.8,2.6H724.2a3,3,0,0,1-2.1-.5,9.2,9.2,0,0,1-1.4-1.4l-41.6-60v59.3c0,1.8-.8,2.6-2.7,2.6H664.3c-1.8,0-2.6-.8-2.6-2.6Z" transform="translate(-333 -374)"/>
          <path d="M794.4,496.4V412.3c0-1.7.8-2.5,2.4-2.5h12.9c1.6,0,2.3.8,2.3,2.5v84.1c0,1.6-.7,2.4-2.3,2.4H796.8A2.1,2.1,0,0,1,794.4,496.4Z" transform="translate(-333 -374)"/>
          <path d="M824.3,423.5V412.1c0-1.5.7-2.3,2.2-2.3h63a2.1,2.1,0,0,1,2.4,2.3v11.4a2.1,2.1,0,0,1-2.4,2.4h-23v70.5a2.1,2.1,0,0,1-2.3,2.4H851.3c-1.6,0-2.3-.8-2.3-2.4V425.9H826.5C825,425.9,824.3,425.1,824.3,423.5Z" transform="translate(-333 -374)"/>
          <path d="M903.8,490.7a9.4,9.4,0,0,1,2.9-6.9,9.9,9.9,0,0,1,13.8,0,9.8,9.8,0,0,1,0,13.7,9.8,9.8,0,0,1-16.7-6.8ZM922.3,413v56.4a3.6,3.6,0,0,1-.8,2.4,3.2,3.2,0,0,1-2.4.9h-11a3.5,3.5,0,0,1-2.3-.9,2.7,2.7,0,0,1-1-2.4V413c0-2.1,1.1-3.2,3.3-3.2h11A2.9,2.9,0,0,1,922.3,413Z" transform="translate(-333 -374)"/>
        </g>
      </g>
      <g id="함께_성장을_향한_여정을_떠나요_Onit에게_바라는_점을_보내주세요." data-name="함께 성장을 향한 여정을 떠나요 Onit에게 바라는 점을 보내주세요." class="cls-2">
        <g class="cls-2">
          <path d="M350.2,543.9H333.1v-2.6H340v-3.1h3.3v3.1h6.9Zm-8.6,11.5c-4.2,0-7-2-7-5.2s2.8-5.1,7-5.1,7,2,7,5.1S345.8,555.4,341.6,555.4Zm-4.4,1.9h18.4v9.6H337.2Zm4.4-4.3c2.3,0,3.9-1.1,3.9-2.8s-1.6-2.6-3.9-2.6-3.8,1-3.8,2.6S339.3,553,341.6,553Zm-1.2,11.3h12v-4.4h-12Zm19.3-15.8h-4.1v7.3h-3.3V538.4h3.3v7.4h4.1Z" transform="translate(-333 -374)"/>
          <path d="M369.5,541.8c0,6.7-.7,13.3-4.6,19l-2.6-1.4c3.3-4.6,4.2-9.4,4.5-14.9h-3.7v-2.7Zm9.2-2.7h3.1v26.8h-3.1V552.2h-3.5a26.5,26.5,0,0,1-3.9,10.3l-2.6-1.5c3.7-5.1,4.3-10.9,4.4-16.5h-2.6v-2.7h5.4a66.9,66.9,0,0,1-.3,7.7h3.1Zm8.6-.7v28.9h-3.1V538.4Z" transform="translate(-333 -374)"/>
          <path d="M414.5,554.3a11.4,11.4,0,0,1-6.6-6.1,11.5,11.5,0,0,1-7.2,6.9l-1.7-2.6a10.1,10.1,0,0,0,7.2-9.7v-2.9h3.3v2.7a9.5,9.5,0,0,0,6.8,9.1Zm8.7,7.5c0,3.5-3.7,5.5-9.8,5.5s-9.7-2-9.7-5.5,3.7-5.6,9.7-5.6S423.2,558.3,423.2,561.8Zm-3.3,0c0-1.9-2.4-3-6.5-3s-6.4,1.1-6.4,3,2.4,2.9,6.4,2.9S419.9,563.7,419.9,561.8Zm-.1-14.9h-5.9v-2.7h5.9v-5.8h3.3v17h-3.3Z" transform="translate(-333 -374)"/>
          <path d="M443.9,554.6a10.9,10.9,0,0,1-6.7-5.8,12.2,12.2,0,0,1-7.2,6.7l-1.7-2.6c4.6-1.6,7.1-5.3,7.1-9.2v-.6h-6.1v-2.6h15.5v2.6h-6.1v.6c0,3.5,2.4,6.9,6.8,8.3Zm7.6,7.2c0,3.5-3.7,5.5-9.7,5.5s-9.6-2-9.6-5.5,3.7-5.4,9.6-5.4S451.5,558.4,451.5,561.8Zm-3.3,0c0-1.9-2.3-2.9-6.4-2.9s-6.3,1-6.3,2.9,2.3,2.9,6.3,2.9S448.2,563.7,448.2,561.8Zm7-16.4v2.8h-4.1v7.5h-3.3V538.4h3.3v7Z" transform="translate(-333 -374)"/>
          <path d="M484.2,550.5v2.6H458v-2.6Zm-23.4-6.7c0-3.2,3.8-4.9,10.3-4.9s10.3,1.7,10.3,4.9-3.9,5-10.3,5S460.8,547,460.8,543.8Zm3.6,20.7h17.3V567H461.2v-7.2h16.4v-2.1H461.1v-2.5h19.8v6.9H464.4Zm-.2-20.7c0,1.7,2.4,2.5,6.9,2.5s6.9-.8,6.9-2.5-2.4-2.5-6.9-2.5S464.2,542.2,464.2,543.8Z" transform="translate(-333 -374)"/>
          <path d="M511.8,544.1H494.7v-2.7h6.9v-3.2h3.3v3.2h6.9Zm-8.6,11.5c-4.2,0-7-2.1-7-5.2s2.8-5.1,7-5.1,7,2,7,5.1S507.4,555.6,503.2,555.6Zm14.3,6.6c0,3.2-3.6,5.1-9.5,5.1s-9.5-1.9-9.5-5.1,3.6-5,9.5-5S517.5,559,517.5,562.2Zm-14.3-9.1c2.3,0,3.9-1,3.9-2.7s-1.6-2.7-3.9-2.7-3.8,1-3.8,2.7S500.9,553.1,503.2,553.1Zm11.1,9.1c0-1.7-2.3-2.5-6.3-2.5s-6.3.8-6.3,2.5,2.3,2.6,6.3,2.6S514.3,563.9,514.3,562.2Zm2.9-16.4v3.5h4V552h-4v4.9h-3.3V538.4h3.3V543h4v2.8Z" transform="translate(-333 -374)"/>
          <path d="M541.2,544.3H524.1v-2.6H531v-3.3h3.3v3.3h6.9Zm-8.6,12.3c-4.1,0-7-2.2-7-5.5s2.9-5.4,7-5.4,7.1,2.2,7.1,5.4S536.8,556.6,532.6,556.6Zm-.9,7.5h16.1v2.7H528.4v-8.4h3.3Zm.9-10c2.4,0,3.9-1.1,3.9-3s-1.5-2.9-3.9-2.9-3.8,1.1-3.8,2.9S530.4,554.1,532.6,554.1Zm18.2-6.5v2.7h-4.1v9.8h-3.3V538.4h3.3v9.2Z" transform="translate(-333 -374)"/>
          <path d="M584.7,538.4v29h-3.3v-11h-6.6c-1.3,2.8-3.5,4.5-6.3,4.5s-7.3-3.9-7.3-10.2,3.1-10.2,7.3-10.2a6.8,6.8,0,0,1,6.1,4.1h6.8v-6.2Zm-12,12.3c0-4.5-1.7-7.2-4.2-7.2s-4.2,2.7-4.2,7.2,1.8,7.3,4.2,7.3S572.7,555.2,572.7,550.7Zm8.7,3v-6.4h-5.9a18.7,18.7,0,0,1,.3,3.4,14.6,14.6,0,0,1-.2,3Z" transform="translate(-333 -374)"/>
          <path d="M605.7,554.7a11.1,11.1,0,0,1-6.7-6.2,12.2,12.2,0,0,1-7.1,7l-1.7-2.7a10.1,10.1,0,0,0,7.1-9.4V543h-6.2v-2.6h15.5V543h-6v.4c0,3.6,2.4,7.2,6.8,8.7Zm8.5,7.2c0,3.4-3.7,5.4-9.7,5.4s-9.7-2-9.7-5.4,3.7-5.5,9.7-5.5S614.2,558.4,614.2,561.9Zm-3.2,0c0-1.9-2.4-3-6.5-3s-6.4,1.1-6.4,3,2.3,2.9,6.4,2.9S611,563.7,611,561.9Zm-.2-16.2v-7.3h3.3v17.2h-3.3v-7.2h-5.1v-2.7Z" transform="translate(-333 -374)"/>
          <path d="M645.8,550.5v2.6H619.6v-2.6Zm-23.4-6.7c0-3.2,3.8-4.9,10.3-4.9s10.3,1.7,10.3,4.9-3.9,5-10.3,5S622.4,547,622.4,543.8Zm3.6,20.7h17.3V567H622.8v-7.2h16.4v-2.1H622.7v-2.5h19.8v6.9H626Zm-.2-20.7c0,1.7,2.4,2.5,6.9,2.5s6.9-.8,6.9-2.5-2.4-2.5-6.9-2.5S625.8,542.2,625.8,543.8Z" transform="translate(-333 -374)"/>
          <path d="M660.3,557.3a30.5,30.5,0,0,0,4.1-.5l.3,2.7a27.2,27.2,0,0,1-6.3.5H657V541.2h7.3v2.7h-4Zm8.7,0a24,24,0,0,0,5.6-.6l.3,2.7a34.4,34.4,0,0,1-7.6.6h-1.5V541.2h7.8v2.7H669Zm11.5-18.9v28.9h-3.3V551.4h-4.9v-2.7h4.9V538.4Z" transform="translate(-333 -374)"/>
          <path d="M690,557.3a60.5,60.5,0,0,0,12.4-1.2l.4,2.7a67.3,67.3,0,0,1-13.7,1.3h-2.4V541.2H690Zm22.5-4.9h-4.4v14.9h-3.3V538.4h3.3v11.3h4.4Z" transform="translate(-333 -374)"/>
          <path d="M741.3,561.1v2.6H715.1v-2.6h6.2v-7.6a6.5,6.5,0,0,1-3.7-5.9c0-4.6,4.4-7.5,10.6-7.5s10.6,2.9,10.6,7.5a6.6,6.6,0,0,1-3.7,5.9v7.6Zm-20.5-13.5c0,3.1,3,5,7.4,5s7.4-1.9,7.4-5-3.1-4.9-7.4-4.9S720.8,544.6,720.8,547.6Zm3.8,13.5h7.2v-6.3a16.4,16.4,0,0,1-7.2,0Z" transform="translate(-333 -374)"/>
          <path d="M746,562.7a2.4,2.4,0,0,1,2.4-2.6,2.6,2.6,0,0,1,0,5.2A2.4,2.4,0,0,1,746,562.7Zm.7-18.2v-3.8h3.7v3.8l-.5,12.8h-2.5Z" transform="translate(-333 -374)"/>
        </g>
        <g>
          <path d="M350.2,543.9H333.1v-2.6H340v-3.1h3.3v3.1h6.9Zm-8.6,11.5c-4.2,0-7-2-7-5.2s2.8-5.1,7-5.1,7,2,7,5.1S345.8,555.4,341.6,555.4Zm-4.4,1.9h18.4v9.6H337.2Zm4.4-4.3c2.3,0,3.9-1.1,3.9-2.8s-1.6-2.6-3.9-2.6-3.8,1-3.8,2.6S339.3,553,341.6,553Zm-1.2,11.3h12v-4.4h-12Zm19.3-15.8h-4.1v7.3h-3.3V538.4h3.3v7.4h4.1Z" transform="translate(-333 -374)"/>
          <path d="M369.5,541.8c0,6.7-.7,13.3-4.6,19l-2.6-1.4c3.3-4.6,4.2-9.4,4.5-14.9h-3.7v-2.7Zm9.2-2.7h3.1v26.8h-3.1V552.2h-3.5a26.5,26.5,0,0,1-3.9,10.3l-2.6-1.5c3.7-5.1,4.3-10.9,4.4-16.5h-2.6v-2.7h5.4a66.9,66.9,0,0,1-.3,7.7h3.1Zm8.6-.7v28.9h-3.1V538.4Z" transform="translate(-333 -374)"/>
          <path d="M414.5,554.3a11.4,11.4,0,0,1-6.6-6.1,11.5,11.5,0,0,1-7.2,6.9l-1.7-2.6a10.1,10.1,0,0,0,7.2-9.7v-2.9h3.3v2.7a9.5,9.5,0,0,0,6.8,9.1Zm8.7,7.5c0,3.5-3.7,5.5-9.8,5.5s-9.7-2-9.7-5.5,3.7-5.6,9.7-5.6S423.2,558.3,423.2,561.8Zm-3.3,0c0-1.9-2.4-3-6.5-3s-6.4,1.1-6.4,3,2.4,2.9,6.4,2.9S419.9,563.7,419.9,561.8Zm-.1-14.9h-5.9v-2.7h5.9v-5.8h3.3v17h-3.3Z" transform="translate(-333 -374)"/>
          <path d="M443.9,554.6a10.9,10.9,0,0,1-6.7-5.8,12.2,12.2,0,0,1-7.2,6.7l-1.7-2.6c4.6-1.6,7.1-5.3,7.1-9.2v-.6h-6.1v-2.6h15.5v2.6h-6.1v.6c0,3.5,2.4,6.9,6.8,8.3Zm7.6,7.2c0,3.5-3.7,5.5-9.7,5.5s-9.6-2-9.6-5.5,3.7-5.4,9.6-5.4S451.5,558.4,451.5,561.8Zm-3.3,0c0-1.9-2.3-2.9-6.4-2.9s-6.3,1-6.3,2.9,2.3,2.9,6.3,2.9S448.2,563.7,448.2,561.8Zm7-16.4v2.8h-4.1v7.5h-3.3V538.4h3.3v7Z" transform="translate(-333 -374)"/>
          <path d="M484.2,550.5v2.6H458v-2.6Zm-23.4-6.7c0-3.2,3.8-4.9,10.3-4.9s10.3,1.7,10.3,4.9-3.9,5-10.3,5S460.8,547,460.8,543.8Zm3.6,20.7h17.3V567H461.2v-7.2h16.4v-2.1H461.1v-2.5h19.8v6.9H464.4Zm-.2-20.7c0,1.7,2.4,2.5,6.9,2.5s6.9-.8,6.9-2.5-2.4-2.5-6.9-2.5S464.2,542.2,464.2,543.8Z" transform="translate(-333 -374)"/>
          <path d="M511.8,544.1H494.7v-2.7h6.9v-3.2h3.3v3.2h6.9Zm-8.6,11.5c-4.2,0-7-2.1-7-5.2s2.8-5.1,7-5.1,7,2,7,5.1S507.4,555.6,503.2,555.6Zm14.3,6.6c0,3.2-3.6,5.1-9.5,5.1s-9.5-1.9-9.5-5.1,3.6-5,9.5-5S517.5,559,517.5,562.2Zm-14.3-9.1c2.3,0,3.9-1,3.9-2.7s-1.6-2.7-3.9-2.7-3.8,1-3.8,2.7S500.9,553.1,503.2,553.1Zm11.1,9.1c0-1.7-2.3-2.5-6.3-2.5s-6.3.8-6.3,2.5,2.3,2.6,6.3,2.6S514.3,563.9,514.3,562.2Zm2.9-16.4v3.5h4V552h-4v4.9h-3.3V538.4h3.3V543h4v2.8Z" transform="translate(-333 -374)"/>
          <path d="M541.2,544.3H524.1v-2.6H531v-3.3h3.3v3.3h6.9Zm-8.6,12.3c-4.1,0-7-2.2-7-5.5s2.9-5.4,7-5.4,7.1,2.2,7.1,5.4S536.8,556.6,532.6,556.6Zm-.9,7.5h16.1v2.7H528.4v-8.4h3.3Zm.9-10c2.4,0,3.9-1.1,3.9-3s-1.5-2.9-3.9-2.9-3.8,1.1-3.8,2.9S530.4,554.1,532.6,554.1Zm18.2-6.5v2.7h-4.1v9.8h-3.3V538.4h3.3v9.2Z" transform="translate(-333 -374)"/>
          <path d="M584.7,538.4v29h-3.3v-11h-6.6c-1.3,2.8-3.5,4.5-6.3,4.5s-7.3-3.9-7.3-10.2,3.1-10.2,7.3-10.2a6.8,6.8,0,0,1,6.1,4.1h6.8v-6.2Zm-12,12.3c0-4.5-1.7-7.2-4.2-7.2s-4.2,2.7-4.2,7.2,1.8,7.3,4.2,7.3S572.7,555.2,572.7,550.7Zm8.7,3v-6.4h-5.9a18.7,18.7,0,0,1,.3,3.4,14.6,14.6,0,0,1-.2,3Z" transform="translate(-333 -374)"/>
          <path d="M605.7,554.7a11.1,11.1,0,0,1-6.7-6.2,12.2,12.2,0,0,1-7.1,7l-1.7-2.7a10.1,10.1,0,0,0,7.1-9.4V543h-6.2v-2.6h15.5V543h-6v.4c0,3.6,2.4,7.2,6.8,8.7Zm8.5,7.2c0,3.4-3.7,5.4-9.7,5.4s-9.7-2-9.7-5.4,3.7-5.5,9.7-5.5S614.2,558.4,614.2,561.9Zm-3.2,0c0-1.9-2.4-3-6.5-3s-6.4,1.1-6.4,3,2.3,2.9,6.4,2.9S611,563.7,611,561.9Zm-.2-16.2v-7.3h3.3v17.2h-3.3v-7.2h-5.1v-2.7Z" transform="translate(-333 -374)"/>
          <path d="M645.8,550.5v2.6H619.6v-2.6Zm-23.4-6.7c0-3.2,3.8-4.9,10.3-4.9s10.3,1.7,10.3,4.9-3.9,5-10.3,5S622.4,547,622.4,543.8Zm3.6,20.7h17.3V567H622.8v-7.2h16.4v-2.1H622.7v-2.5h19.8v6.9H626Zm-.2-20.7c0,1.7,2.4,2.5,6.9,2.5s6.9-.8,6.9-2.5-2.4-2.5-6.9-2.5S625.8,542.2,625.8,543.8Z" transform="translate(-333 -374)"/>
          <path d="M660.3,557.3a30.5,30.5,0,0,0,4.1-.5l.3,2.7a27.2,27.2,0,0,1-6.3.5H657V541.2h7.3v2.7h-4Zm8.7,0a24,24,0,0,0,5.6-.6l.3,2.7a34.4,34.4,0,0,1-7.6.6h-1.5V541.2h7.8v2.7H669Zm11.6-18.9v28.9h-3.4V551.4h-4.9v-2.7h4.9V538.4Z" transform="translate(-333 -374)"/>
          <path d="M690,557.3a60.5,60.5,0,0,0,12.4-1.2l.4,2.7a67.3,67.3,0,0,1-13.7,1.3h-2.4V541.2H690Zm22.5-4.9h-4.4v14.9h-3.3V538.4h3.3v11.3h4.4Z" transform="translate(-333 -374)"/>
          <path d="M741.3,561.1v2.6H715.1v-2.6h6.2v-7.6a6.5,6.5,0,0,1-3.7-5.9c0-4.6,4.4-7.5,10.6-7.5s10.6,2.9,10.6,7.5a6.6,6.6,0,0,1-3.7,5.9v7.6Zm-20.5-13.5c0,3.1,3,5,7.4,5s7.4-1.9,7.4-5-3-4.9-7.4-4.9S720.8,544.6,720.8,547.6Zm3.8,13.5h7.2v-6.3a16.4,16.4,0,0,1-7.2,0Z" transform="translate(-333 -374)"/>
          <path d="M746,562.7a2.4,2.4,0,0,1,2.4-2.6,2.6,2.6,0,0,1,0,5.2A2.4,2.4,0,0,1,746,562.7Zm.7-18.2v-3.8h3.7v3.8l-.5,12.8h-2.5Z" transform="translate(-333 -374)"/>
          <path d="M763,553c0-7.6,4.1-12.2,10.2-12.2s10.3,4.6,10.3,12.2-4.3,12.3-10.3,12.3S763,560.5,763,553Zm16.7,0c0-5.6-2.6-8.9-6.5-8.9s-6.4,3.3-6.4,8.9,2.5,9,6.4,9S779.7,558.5,779.7,553Z" transform="translate(-333 -374)"/>
          <path d="M788,547.2h3l.3,2.5h.1c1.7-1.6,3.5-2.9,5.9-2.9s5.4,2.5,5.4,7v11H799V554.2c0-3-.9-4.2-3-4.2s-2.7.8-4.3,2.4v12.4H788Z" transform="translate(-333 -374)"/>
          <path d="M807.5,541.8a2.2,2.2,0,0,1,2.3-2.2,2.2,2.2,0,1,1,0,4.3A2.2,2.2,0,0,1,807.5,541.8Zm.5,5.4h3.7v17.6H808Z" transform="translate(-333 -374)"/>
          <path d="M817.8,559.1v-8.9h-2.6v-2.8l2.7-.2.4-4.8h3.1v4.8H826v3h-4.6v8.9c0,2.1.8,3.2,2.6,3.2a5.8,5.8,0,0,0,1.9-.4l.7,2.7a12.1,12.1,0,0,1-3.5.7C819.1,565.3,817.8,562.8,817.8,559.1Z" transform="translate(-333 -374)"/>
          <path d="M844.5,538.9h3v27h-3V552.1h-3.1c-.3,5.6-2.7,9.1-6.2,9.1s-6.2-4-6.2-10.3,2.5-10.3,6.2-10.3,5.8,3.3,6.1,8.7h3.2Zm-6.1,12c0-4.6-1.2-7.2-3.2-7.2s-3.2,2.6-3.2,7.2,1.2,7.2,3.2,7.2S838.4,555.5,838.4,550.9Zm15-12.5v28.9h-3.2V538.4Z" transform="translate(-333 -374)"/>
          <path d="M873.6,539.1h3.1v26.8h-3.1V552.5h-5.3a21.1,21.1,0,0,1-8.4,8.7l-1.9-2.3c6-3.6,8.9-8.4,9.3-14.3h-7.9V542h11.2a25.6,25.6,0,0,1-1.2,7.9h4.2Zm9.3-.7v28.9h-3.2V538.4Z" transform="translate(-333 -374)"/>
          <path d="M906.2,540.8h3.3v19.7H895.8V540.8h3.3v7.3h7.1Zm0,10h-7.1v7h7.1Zm15.5,1.5h-4.5v15h-3.3V538.4h3.3v11.1h4.5Z" transform="translate(-333 -374)"/>
          <path d="M928.6,557.8a80.2,80.2,0,0,0,12.5-1l.3,2.7a72.2,72.2,0,0,1-13.7,1h-2.3V549.1h9.9v-5.4h-10V541h13.2v10.7h-9.9Zm22.5-5.4h-4.4v14.9h-3.4v-29h3.4v11.3h4.4Z" transform="translate(-333 -374)"/>
          <path d="M979.9,552.8v2.7H953.6v-2.7ZM960.1,564H977v2.7H956.8v-8.6h3.3Zm16.8-14.6H957v-10h3.3v7.3h16.6Z" transform="translate(-333 -374)"/>
          <path d="M1005.9,554.5a11.6,11.6,0,0,1-6.8-6.2,11.9,11.9,0,0,1-7.1,6.8l-1.7-2.6c4.5-1.6,7.1-5.4,7.1-9.3v-.5h-6.1v-2.6h15.4v2.6h-6v.5c0,3.6,2.5,7.2,6.8,8.7Zm-10.6,2h18.9v10.4H995.3Zm3.2,7.8H1011v-5.2H998.5Zm15.7-25.9v16.8h-3.3v-7.1h-5.1v-2.7h5.1v-7Z" transform="translate(-333 -374)"/>
          <path d="M1045.9,550.5v2.6h-26.2v-2.6Zm-23.4-6.7c0-3.2,3.8-4.9,10.3-4.9s10.3,1.7,10.3,4.9-3.8,5-10.3,5S1022.5,547,1022.5,543.8Zm3.6,20.7h17.3V567h-20.5v-7.2h16.5v-2.1h-16.6v-2.5h19.8v6.9h-16.5Zm-.2-20.7c0,1.7,2.4,2.5,6.9,2.5s6.9-.8,6.9-2.5-2.4-2.5-6.9-2.5S1025.9,542.2,1025.9,543.8Z" transform="translate(-333 -374)"/>
          <path d="M1082.6,561.1v2.7h-26.2v-2.7h11.4v-5.9h-8.5V540.3h3.3v4.9h13.7v-4.9h3.3v14.9h-8.5v5.9Zm-20-8.5h13.7v-4.8h-13.7Z" transform="translate(-333 -374)"/>
          <path d="M1090.4,557.2a56,56,0,0,0,8.5-.9l.3,2.8a55.6,55.6,0,0,1-10.2.9h-1.9V541.7h3.3Zm20-18.8v28.9h-3.1V552.6h-3.5v13.3h-3.1V539h3.1v10.9h3.5V538.4Z" transform="translate(-333 -374)"/>
          <path d="M1141.4,557.3h-11.5v10h-3.3v-10h-11.3v-2.6h26.1Zm-24.7-7.3c5.5-.8,9.6-3.9,9.8-7.3h-8.8V540h21.2v2.7h-8.7c.2,3.4,4.3,6.5,9.8,7.3l-1.2,2.5c-4.8-.7-8.7-3-10.5-6.2-1.7,3.2-5.6,5.5-10.4,6.2Z" transform="translate(-333 -374)"/>
          <path d="M1153.6,546.1c0,4.7,1.7,9.6,5.6,12l-1.9,2.6c-2.6-1.6-4.3-4.4-5.3-7.7a13.7,13.7,0,0,1-5.7,8.3l-2-2.5c4.1-2.4,6.1-7.6,6.1-12.5v-5.2h3.2Zm6.8-7.2h3.1V566h-3.1V551.2h-4.3v-2.7h4.3Zm9-.5v28.9h-3.2V538.4Z" transform="translate(-333 -374)"/>
          <path d="M1200.3,561.1v2.6h-26.2v-2.6h6.2v-7.6a6.5,6.5,0,0,1-3.7-5.9c0-4.6,4.4-7.5,10.6-7.5s10.6,2.9,10.6,7.5a6.4,6.4,0,0,1-3.7,5.9v7.6Zm-20.5-13.5c0,3.1,3,5,7.4,5s7.4-1.9,7.4-5-3-4.9-7.4-4.9S1179.8,544.6,1179.8,547.6Zm3.8,13.5h7.3v-6.3a22.1,22.1,0,0,1-3.7.4,19.8,19.8,0,0,1-3.6-.4Z" transform="translate(-333 -374)"/>
          <path d="M1204.3,562.7a2.4,2.4,0,0,1,2.4-2.6,2.6,2.6,0,0,1,0,5.2A2.4,2.4,0,0,1,1204.3,562.7Z" transform="translate(-333 -374)"/>
        </g>
      </g>
    </g>
  </g>
</svg>
