<svg data-name="그룹 2089" xmlns="http://www.w3.org/2000/svg" width="876.091" height="160.784" viewBox="0 0 876.091 160.784">
    <defs>
        <clipPath id="blevhaxt9a">
            <path data-name="사각형 2033" style="fill:none" d="M0 0h876.091v160.784H0z"/>
        </clipPath>
        <clipPath id="wz7jnx6gyb">
            <path data-name="사각형 2035" transform="translate(0 .001)" style="fill:none" d="M0 0h512v87.824H0z"/>
        </clipPath>
    </defs>
    <g data-name="그룹 2086">
        <g data-name="그룹 2085" style="clip-path:url(#blevhaxt9a)">
            <path data-name="패스 2202" d="M17.055 137.3H0v-2.624h6.879V131.6h3.3v3.071h6.88zm-8.544 11.549c-4.16 0-7.007-2.048-7.007-5.184 0-3.1 2.847-5.183 7.007-5.183 4.192 0 7.007 2.079 7.007 5.183 0 3.136-2.815 5.184-7.007 5.184M4.063 150.7h18.463v9.664H4.063zm4.448-4.319c2.3 0 3.872-1.024 3.872-2.72 0-1.664-1.568-2.688-3.872-2.688S4.672 142 4.672 143.665c0 1.7 1.535 2.72 3.839 2.72m-1.184 11.359h11.967V153.3H7.327zm19.295-15.775h-4.1v7.264h-3.3v-17.408h3.3v7.424h4.1z"/>
            <path data-name="패스 2203" d="M36.446 135.186c0 6.688-.767 13.343-4.671 19.038l-2.528-1.439c3.264-4.544 4.192-9.407 4.416-14.911h-3.647v-2.688zm9.184-2.686h3.1v26.814h-3.1v-13.697h-3.487a26.262 26.262 0 0 1-3.936 10.271l-2.561-1.439c3.617-5.088 4.289-10.943 4.384-16.575h-2.655v-2.688h5.472a71.127 71.127 0 0 1-.353 7.744h3.136zm8.607 28.255H51.1v-28.96h3.136z"/>
            <path data-name="패스 2204" d="M81.438 147.7a11.211 11.211 0 0 1-6.59-6.112 11.954 11.954 0 0 1-7.2 6.976L65.92 145.9a10.11 10.11 0 0 0 7.167-9.695v-2.848h3.328v2.687A9.4 9.4 0 0 0 83.2 145.1zm8.673 7.487c0 3.488-3.713 5.536-9.76 5.536-6.016 0-9.727-2.048-9.727-5.536s3.711-5.535 9.727-5.535c6.047 0 9.76 2.048 9.76 5.535m-3.3 0c0-1.888-2.367-2.943-6.463-2.943s-6.432 1.055-6.432 2.943 2.336 2.944 6.432 2.944 6.463-1.056 6.463-2.944m-.127-14.911h-5.853v-2.688h5.856v-5.791h3.3v17.055h-3.3z"/>
            <path data-name="패스 2205" d="M110.847 147.985a10.85 10.85 0 0 1-6.784-5.792 11.76 11.76 0 0 1-7.167 6.72l-1.664-2.592c4.544-1.567 7.071-5.279 7.071-9.215v-.576H96.16v-2.656h15.518v2.656h-6.047v.544c0 3.584 2.4 6.943 6.816 8.352zm7.519 7.264c0 3.424-3.68 5.471-9.631 5.471s-9.631-2.047-9.631-5.471c0-3.456 3.68-5.472 9.631-5.472s9.631 2.016 9.631 5.472m-3.264 0c0-1.888-2.336-2.88-6.367-2.88s-6.367.992-6.367 2.88c0 1.855 2.336 2.88 6.367 2.88s6.367-1.025 6.367-2.88m7.04-16.383v2.72h-4.1v7.514h-3.3v-17.274h3.3v7.04z"/>
            <path data-name="패스 2206" d="M151.069 146.545h-26.175v-2.624h26.175zm-23.391-9.279c0-3.232 3.808-4.992 10.3-4.992 6.464 0 10.3 1.76 10.3 4.992 0 3.2-3.84 4.959-10.3 4.959-6.5 0-10.3-1.76-10.3-4.959m3.648 20.67H148.6v2.528h-20.537V153.2h16.477v-2.08H128v-2.5h19.775v6.913h-16.449zm-.224-20.67c0 1.632 2.4 2.495 6.879 2.495s6.88-.863 6.88-2.495c0-1.664-2.4-2.528-6.88-2.528s-6.879.864-6.879 2.528"/>
            <path data-name="패스 2207" d="M178.654 137.49H161.6v-2.624h6.879V131.6h3.295v3.264h6.88zm-8.544 11.487c-4.159 0-7.006-2.017-7.006-5.12 0-3.136 2.847-5.151 7.006-5.151 4.193 0 7.008 2.015 7.008 5.151 0 3.1-2.815 5.12-7.008 5.12m14.335 6.655c0 3.2-3.647 5.088-9.535 5.088s-9.535-1.888-9.535-5.088c0-3.168 3.647-5.055 9.535-5.055s9.535 1.887 9.535 5.055m-14.335-9.087c2.3 0 3.872-1.024 3.872-2.688 0-1.695-1.567-2.72-3.872-2.72s-3.838 1.025-3.838 2.72c0 1.664 1.535 2.688 3.838 2.688m11.072 9.087c0-1.664-2.3-2.528-6.272-2.528s-6.271.864-6.271 2.528c0 1.7 2.3 2.56 6.271 2.56s6.272-.863 6.272-2.56m2.944-16.447v3.488h4v2.72h-4v4.928h-3.3v-18.495h3.3v4.639h4v2.72z"/>
            <path data-name="패스 2208" d="M208.094 137.746h-17.055v-2.624h6.879v-3.327h3.3v3.327h6.88zm-8.544 12.287c-4.127 0-7.007-2.176-7.007-5.471 0-3.264 2.88-5.472 7.007-5.472 4.16 0 7.007 2.208 7.007 5.472 0 3.295-2.847 5.471-7.007 5.471m-.96 7.455h16.127v2.689h-19.454v-8.352h3.327zm.96-10.014c2.3 0 3.872-1.088 3.872-2.912s-1.568-2.913-3.872-2.913c-2.272 0-3.839 1.088-3.839 2.913s1.567 2.912 3.839 2.912m18.111-6.432v2.72h-4.1v9.727h-3.3v-21.663h3.3v9.216z"/>
            <path data-name="패스 2209" d="M251.644 131.795v28.989h-3.327V149.81h-6.656c-1.216 2.847-3.488 4.511-6.24 4.511-4.255 0-7.294-3.936-7.294-10.208 0-6.207 3.039-10.174 7.294-10.174a6.75 6.75 0 0 1 6.081 4.1h6.815V131.8zm-12.031 12.318c0-4.479-1.7-7.2-4.192-7.2-2.463 0-4.191 2.72-4.191 7.2 0 4.544 1.728 7.264 4.191 7.264 2.5 0 4.192-2.72 4.192-7.264m8.7 2.977v-6.336H242.4a15.916 15.916 0 0 1 .352 3.359 17.208 17.208 0 0 1-.256 2.977z"/>
            <path data-name="패스 2210" d="M272.638 148.113a11.289 11.289 0 0 1-6.72-6.175 11.954 11.954 0 0 1-7.134 6.943l-1.7-2.623a10.147 10.147 0 0 0 7.072-9.407v-.416h-6.112v-2.657H273.5v2.657h-6.015v.384c0 3.615 2.464 7.2 6.783 8.7zm8.512 7.168c0 3.455-3.712 5.472-9.728 5.472-6.048 0-9.758-2.017-9.758-5.472 0-3.423 3.71-5.471 9.758-5.471 6.016 0 9.728 2.048 9.728 5.471m-3.3 0c0-1.888-2.368-2.912-6.432-2.912-4.128 0-6.464 1.024-6.464 2.912s2.336 2.912 6.464 2.912c4.064 0 6.432-1.024 6.432-2.912m-.128-16.191v-7.264h3.3v17.215h-3.3v-7.263h-5.12v-2.688z"/>
            <path data-name="패스 2211" d="M312.669 146.545h-26.175v-2.624h26.175zm-23.391-9.279c0-3.232 3.808-4.992 10.3-4.992 6.464 0 10.3 1.76 10.3 4.992 0 3.2-3.84 4.959-10.3 4.959-6.495 0-10.3-1.76-10.3-4.959m3.648 20.67H310.2v2.528h-20.538V153.2h16.478v-2.08H289.6v-2.5h19.775v6.913h-16.449zm-.224-20.67c0 1.632 2.4 2.495 6.879 2.495s6.88-.863 6.88-2.495c0-1.664-2.4-2.528-6.88-2.528s-6.879.864-6.879 2.528"/>
            <path data-name="패스 2212" d="M327.2 150.673a20.257 20.257 0 0 0 4.064-.448l.351 2.688a28.442 28.442 0 0 1-6.335.512h-1.345V134.61h7.265v2.69h-4zm8.735.032a25.514 25.514 0 0 0 5.6-.576l.287 2.656a30.323 30.323 0 0 1-7.615.64h-1.5V134.61h7.808v2.69h-4.576zm11.519-18.879v28.927h-3.327v-15.9H339.2v-2.687h4.928v-10.34z"/>
            <path data-name="패스 2213" d="M356.894 150.769a64.394 64.394 0 0 0 12.446-1.248l.385 2.72A70.063 70.063 0 0 1 356 153.52h-2.4v-18.878h3.3zm22.462-4.96h-4.384v14.911h-3.3v-28.894h3.3v11.263h4.384z"/>
            <path data-name="패스 2214" d="M408.22 154.48v2.688h-26.174v-2.688h6.111v-7.52a6.642 6.642 0 0 1-3.68-5.918c0-4.608 4.449-7.552 10.623-7.552 6.144 0 10.624 2.944 10.624 7.552a6.677 6.677 0 0 1-3.679 5.918v7.52zm-20.542-13.438c0 3.071 3.04 4.991 7.422 4.991 4.353 0 7.392-1.92 7.392-4.991 0-3.041-3.039-4.96-7.392-4.96-4.382 0-7.422 1.919-7.422 4.96m3.775 13.438h7.3v-6.3a14.866 14.866 0 0 1-3.649.416 16.626 16.626 0 0 1-3.647-.384z"/>
            <path data-name="패스 2215" d="M412.894 156.112a2.478 2.478 0 0 1 2.432-2.623 2.509 2.509 0 0 1 2.5 2.623 2.456 2.456 0 0 1-2.5 2.56 2.424 2.424 0 0 1-2.432-2.56m.7-18.174-.1-3.776h3.712l-.128 3.776-.511 12.8h-2.457z"/>
            <path data-name="패스 2216" d="M429.854 146.386c0-7.584 4.191-12.127 10.239-12.127s10.271 4.543 10.271 12.127-4.224 12.287-10.271 12.287-10.239-4.7-10.239-12.287m16.7 0c0-5.536-2.56-8.9-6.463-8.9s-6.432 3.36-6.432 8.9 2.528 9.055 6.432 9.055 6.463-3.52 6.463-9.055"/>
            <path data-name="패스 2217" d="M454.941 140.658h3.008l.287 2.432h.1c1.631-1.569 3.423-2.88 5.823-2.88 3.744 0 5.408 2.5 5.408 6.975v11.072h-3.681v-10.623c0-3.04-.895-4.256-2.975-4.256-1.632 0-2.752.832-4.32 2.4v12.48h-3.647z"/>
            <path data-name="패스 2218" d="M474.4 135.186a2.162 2.162 0 0 1 2.336-2.175 2.181 2.181 0 1 1-2.336 2.175m.513 5.472h3.647v17.6h-3.647z"/>
            <path data-name="패스 2219" d="M484.668 152.5v-8.9h-2.56v-2.75l2.72-.192.416-4.864h3.1v4.864h4.576v2.942h-4.576v8.928c0 2.112.736 3.2 2.56 3.2a5.226 5.226 0 0 0 1.888-.416l.672 2.72a11.26 11.26 0 0 1-3.456.641c-3.968 0-5.344-2.464-5.344-6.176"/>
            <path data-name="패스 2220" d="M511.355 132.37h3.072v26.975h-3.072v-13.856h-3.072c-.288 5.632-2.655 9.088-6.176 9.088-3.743 0-6.207-3.936-6.207-10.272s2.464-10.239 6.207-10.239c3.456 0 5.792 3.3 6.144 8.7h3.1zm-6.047 11.93c0-4.576-1.216-7.135-3.2-7.135s-3.2 2.559-3.2 7.135 1.216 7.167 3.2 7.167 3.2-2.591 3.2-7.167m14.974 16.383h-3.136v-28.857h3.136z"/>
            <path data-name="패스 2221" d="M540.539 132.53h3.1v26.815h-3.1V145.97h-5.311a21.563 21.563 0 0 1-8.449 8.638l-1.887-2.335c6.015-3.584 8.863-8.319 9.343-14.239h-7.967v-2.656H537.5a24.684 24.684 0 0 1-1.216 7.935h4.256zm9.215 28.191h-3.168v-28.895h3.168z"/>
            <path data-name="패스 2222" d="M573.147 134.194h3.264V153.9h-13.727v-19.706h3.3v7.359h7.167zm0 9.983h-7.167v7.071h7.167zm15.423 1.5h-4.512v15.071h-3.3v-28.922h3.3v11.1h4.512z"/>
            <path data-name="패스 2223" d="M595.548 151.185a68.711 68.711 0 0 0 12.415-.96l.352 2.688a72.6 72.6 0 0 1-13.663.992h-2.368v-11.424h9.887v-5.407h-9.951v-2.688h13.215v10.751h-9.887zm22.462-5.376h-4.447v14.943h-3.328v-28.99h3.328v11.3h4.447z"/>
            <path data-name="패스 2224" d="M646.777 148.913h-26.238v-2.655h26.238zm-19.742 8.512h16.894v2.656h-20.19v-8.511h3.3zm16.734-14.625H623.93v-9.951h3.3v7.263h16.543z"/>
            <path data-name="패스 2225" d="M672.763 147.89a11.256 11.256 0 0 1-6.752-6.176 11.844 11.844 0 0 1-7.136 6.815l-1.7-2.591a10.067 10.067 0 0 0 7.1-9.312v-.479h-6.112v-2.657h15.454v2.657h-6.014v.479c0 3.584 2.464 7.2 6.75 8.7zm-10.591 2.048h18.974v10.432h-18.974zm3.232 7.807h12.51v-5.185H665.4zm15.742-25.95v16.83h-3.3v-7.1h-5.12v-2.688h5.12v-7.039z"/>
            <path data-name="패스 2226" d="M712.794 146.545h-26.175v-2.624h26.175zm-23.394-9.279c0-3.232 3.808-4.992 10.3-4.992 6.464 0 10.3 1.76 10.3 4.992 0 3.2-3.84 4.959-10.3 4.959-6.495 0-10.3-1.76-10.3-4.959m3.648 20.67h17.282v2.528h-20.543V153.2h16.478v-2.08h-16.542v-2.5H709.5v6.913h-16.449zm-.224-20.67c0 1.632 2.4 2.495 6.879 2.495s6.88-.863 6.88-2.495c0-1.664-2.4-2.528-6.88-2.528s-6.879.864-6.879 2.528"/>
            <path data-name="패스 2227" d="M749.465 154.48v2.72h-26.174v-2.72h11.392v-5.823h-8.449v-14.911h3.266v4.864h13.694v-4.864h3.264v14.911h-8.479v5.823zM729.5 146h13.694v-4.736H729.5z"/>
            <path data-name="패스 2228" d="M757.308 150.609a53.59 53.59 0 0 0 8.478-.864l.353 2.815a55.514 55.514 0 0 1-10.207.865h-1.92v-18.271h3.3zm20-18.783v28.895h-3.138v-14.688h-3.424v13.247h-3.1V132.4h3.1v10.911h3.424v-11.485z"/>
            <path data-name="패스 2229" d="M808.281 150.737h-11.487v10.016h-3.3v-10.016h-11.323v-2.656h26.142zm-24.67-7.359c5.5-.736 9.566-3.9 9.759-7.264h-8.8v-2.656h21.279v2.656h-8.735c.191 3.36 4.255 6.528 9.759 7.264l-1.184 2.592c-4.767-.7-8.7-3.072-10.464-6.272-1.76 3.2-5.663 5.568-10.43 6.272z"/>
            <path data-name="패스 2230" d="M820.474 139.538c0 4.672 1.759 9.567 5.631 12l-1.856 2.56a13.18 13.18 0 0 1-5.343-7.648c-1.024 3.552-2.912 6.592-5.7 8.288l-2.016-2.5c4.1-2.432 6.08-7.615 6.08-12.543v-5.216h3.2zm6.783-7.168h3.1v27.007h-3.1v-14.751H823v-2.689h4.255zm9.023 28.351h-3.136v-28.895h3.136z"/>
            <path data-name="패스 2231" d="M867.225 154.48v2.688h-26.174v-2.688h6.111v-7.52a6.642 6.642 0 0 1-3.68-5.918c0-4.608 4.449-7.552 10.623-7.552 6.144 0 10.624 2.944 10.624 7.552a6.677 6.677 0 0 1-3.679 5.918v7.52zm-20.542-13.438c0 3.071 3.04 4.991 7.422 4.991 4.353 0 7.392-1.92 7.392-4.991 0-3.041-3.039-4.96-7.392-4.96-4.382 0-7.422 1.919-7.422 4.96m3.775 13.438h7.3v-6.3a14.867 14.867 0 0 1-3.649.416 16.626 16.626 0 0 1-3.647-.384z"/>
            <path data-name="패스 2232" d="M871.163 156.112a2.469 2.469 0 1 1 4.928 0 2.466 2.466 0 1 1-4.928 0"/>
            <path data-name="사각형 2032" d="M0 3.26h10.697v82.731H0z"/>
        </g>
    </g>
    <g data-name="그룹 2088">
        <g data-name="그룹 2087" style="clip-path:url(#wz7jnx6gyb)">
            <path data-name="패스 2233" d="M22.706 27.658v-5.78c4.541-1.238 6.915-4.643 6.915-9.907h-5.884V0h11.769v11.352c0 8.153-4.851 14.758-12.8 16.306"/>
            <path data-name="패스 2234" d="m57.9 3.3 31.885 56.144L121.674 3.3h9.5v82.66h-10.84V24.975l-26.626 47.06h-7.844l-26.626-47.06v60.988H48.4V3.3z"/>
            <path data-name="패스 2235" d="M174.106 44.582c0-24.975 18.474-43.242 43.551-43.242s43.655 18.269 43.655 43.242-18.473 43.241-43.551 43.241-43.655-18.264-43.655-43.241m76.369 0c0-19.506-13.932-33.335-32.818-33.335s-32.714 13.835-32.714 33.335c0 19.4 13.932 33.334 32.818 33.334 18.783 0 32.715-13.932 32.715-33.334"/>
            <path data-name="패스 2236" d="m285.672 3.3 50.053 64.4V2.786h10.937v82.661h-10.214l-50.053-64.4v64.92h-10.833V3.3z"/>
            <path data-name="사각형 2034" d="M393.211 3.303h10.837v82.665h-10.837z"/>
            <path data-name="패스 2237" d="M457.4 13v72.96h-10.829V13h-29.726V3.3h70.177V13z"/>
            <path data-name="패스 2238" d="M496.726 79.982a7.637 7.637 0 1 1 7.637 7.637 7.469 7.469 0 0 1-7.637-7.3v-.34M497.861 3.3h13.106l-2.683 59.754h-7.843z"/>
        </g>
    </g>
</svg>
