<?xml version="1.0" encoding="utf-8"?>
<!-- Generator: Adobe Illustrator 17.1.0, SVG Export Plug-In . SVG Version: 6.00 Build 0)  -->
<!DOCTYPE svg PUBLIC "-//W3C//DTD SVG 1.1//EN" "http://www.w3.org/Graphics/SVG/1.1/DTD/svg11.dtd">
<svg version="1.1" id="bi" xmlns="http://www.w3.org/2000/svg" xmlns:xlink="http://www.w3.org/1999/xlink" x="0px" y="0px"
	 viewBox="0 0 90 30" enable-background="new 0 0 90 30" xml:space="preserve">
<rect id="사각형_3754" opacity="0.5" fill="none" width="90" height="30"/>
<g id="그룹_5641" transform="translate(1)" opacity="0.5">
	<path id="패스_3446" fill="#022222" d="M3.6,4.1C6,2.2,9.2,1.2,13.1,1.2c4,0,7.1,1,9.5,3c2.4,2,3.8,5.1,3.6,8.2v6.1
		c0,3.6-1.2,6.3-3.6,8.2c-2.4,1.9-5.5,2.8-9.5,2.8s-7.2-0.9-9.6-2.8C1.2,24.8,0,22.1,0,18.5v-6.1C-0.2,9.2,1.1,6.1,3.6,4.1z M11,21
		c0.6,0.5,1.3,0.8,2.1,0.8c0.8,0,1.6-0.2,2.1-0.8c0.6-0.7,0.9-1.5,0.8-2.4V12c0.1-0.9-0.2-1.7-0.8-2.4c-0.6-0.6-1.3-0.9-2.1-0.8
		c-0.8,0-1.6,0.3-2.1,0.8c-0.6,0.6-0.9,1.5-0.8,2.4v6.6C10.1,19.5,10.4,20.4,11,21z M53.1,17.2V28c0,0.6-0.5,1.1-1.1,1.1h-7.5
		c-0.6,0-1.1-0.5-1.1-1.1V17.5c0-1.4-0.7-2.2-2-2.2c-1.3,0-2,0.7-2,2.2V28c0,0.6-0.5,1.1-1.1,1.1H31c-0.6,0-1.1-0.5-1.1-1.1V9.7
		c0-0.6,0.5-1.1,1.1-1.1h6.9c0.6,0,1.1,0.5,1.1,1.1V11c0.7-0.9,1.7-1.5,2.7-2c1.2-0.5,2.5-0.8,3.8-0.8c2,0,4,0.8,5.4,2.3
		C52.4,12,53.1,14.3,53.1,17.2L53.1,17.2z M64.9,29.1h-7c-0.6,0-1.1-0.5-1.1-1.1V9.7c0-0.6,0.5-1.1,1.1-1.1h7c0.6,0,1.1,0.5,1.1,1.1
		V28C66,28.6,65.5,29.1,64.9,29.1z M65.8,1.1v4.8c0,0.6-0.5,1.1-1.1,1.1h-6.6c-0.6,0-1.1-0.5-1.1-1.1V1.1c0-0.3,0.1-0.6,0.3-0.7
		C57.5,0.1,57.8,0,58.1,0h6.6c0.3,0,0.6,0.1,0.7,0.3C65.7,0.5,65.8,0.8,65.8,1.1z M81.7,15.5v4.3c0,1.3,0.6,2,1.7,2h3.6
		c0.6,0,1.1,0.5,1.1,1.1V28c0,0.6-0.5,1.1-1.1,1.1h-4.4c-6.5,0-9.8-2.8-9.8-8.5v-5.1h-3.1c-0.6,0-1.1-0.5-1.1-1.1V9.7
		c0-0.6,0.5-1.1,1.1-1.1h3.1V2.2c0-0.3,0.1-0.6,0.3-0.7c0.2-0.2,0.5-0.3,0.7-0.3h6.9c0.3,0,0.6,0.1,0.7,0.3c0.2,0.2,0.3,0.5,0.3,0.7
		v6.4h4.9c0.6,0,1.1,0.5,1.1,1.1v4.8c0,0.6-0.5,1.1-1.1,1.1L81.7,15.5z"/>
</g>
</svg>
