<svg xmlns="http://www.w3.org/2000/svg" width="514.227" height="132.018" viewBox="0 0 514.227 132.018">
    <g data-name="Group 1967">
        <path data-name="Path 2144" d="M52.646.001c28.5 0 44.595 13.684 44.595 35.741 0 12.074-8.372 23.827-19.964 26.564 14.651 2.9 26.081 14.329 26.081 30.267 0 22.218-16.9 36.385-45.883 36.385H0V.001zm27.53 35.741c0-13.685-10.144-21.091-28.014-21.091H16.9v42.181h35.262c17.87 0 28.014-7.405 28.014-21.09m6.117 56.831c0-14.168-11.27-21.734-29.3-21.734H16.9v43.468h40.092c18.031 0 29.3-7.566 29.3-21.734"/>
        <path data-name="Path 2145" d="M135.078.001v73.414c0 25.92 14.973 43.147 39.443 43.147S213.8 99.335 213.8 73.415V.001h16.9v73.414c0 35.419-22.056 58.6-56.188 58.6-34.292 0-56.347-23.184-56.347-58.6V.001z"/>
        <path data-name="Rectangle 1960" d="M253.413.001h16.904v128.957h-16.904z"/>
        <path data-name="Path 2146" d="M311.693 113.664h70.839v15.294h-87.743V.001h16.9z"/>
        <path data-name="Path 2147" d="M444.034.001c44.435 0 70.193 26.081 70.193 64.56s-25.758 64.4-70.193 64.4h-45.723V.001zm53.128 64.56c0-31.395-19.963-49.426-52.646-49.426h-29.3v98.53h29.3c32.683 0 52.646-17.71 52.646-49.1"/>
    </g>
</svg>
