<svg xmlns="http://www.w3.org/2000/svg" width="103.358" height="128.957" viewBox="0 0 103.358 128.957">
    <path data-name="Path 2136" d="M52.65 0c28.5 0 44.595 13.684 44.595 35.741 0 12.074-8.371 23.827-19.963 26.564 14.651 2.9 26.081 14.329 26.081 30.267 0 22.218-16.9 36.385-45.883 36.385H0V0zm27.531 35.741c0-13.685-10.144-21.091-28.014-21.091H16.904v42.181h35.258c17.87 0 28.014-7.4 28.014-21.09m6.117 56.831c0-14.168-11.27-21.734-29.3-21.734H16.904v43.468h40.088c18.031 0 29.3-7.566 29.3-21.734"/>
</svg>
