<svg xmlns="http://www.w3.org/2000/svg" width="104.968" height="134.914" viewBox="0 0 104.968 134.914">
    <path data-name="Path 2137" d="M104.485 38.639H87.092C85.321 24.954 72.924 14.49 52.8 14.49c-20.285 0-31.716 8.372-31.716 19.963 0 13.363 11.915 19.159 39.444 24.955 31.717 6.761 44.435 19 44.435 38.155 0 23.183-22.7 37.351-51.357 37.351-30.107 0-51.842-16.421-53.611-41.376h17.386c1.772 15.617 15.778 26.726 37.352 26.726 19.318 0 33-8.855 33-21.734 0-14.329-11.753-20.125-39.766-26.082C18.827 66.33 4.014 55.866 4.014 34.453S25.106 0 53.602 0c28.334 0 49.264 16.1 50.874 38.639"/>
</svg>
