<svg xmlns="http://www.w3.org/2000/svg" width="511.009" height="135.076" viewBox="0 0 511.009 135.076">
    <g data-name="Group 1966">
        <path data-name="Path 2140" d="M67.618 88.87v43.146H50.553V88.87L0 3.06h19.16l40.57 70.034L101.588 3.06h18.192z"/>
        <path data-name="Path 2141" d="M117.69 67.46c0-38.961 28.818-67.457 67.941-67.457s68.1 28.5 68.1 67.457-28.818 67.457-67.94 67.457-68.1-28.5-68.1-67.457m119.137 0c0-30.429-21.735-52-51.2-52s-51.036 21.573-51.036 52c0 30.267 21.734 52 51.2 52 29.3 0 51.036-21.734 51.036-52"/>
        <path data-name="Path 2142" d="M287.866 3.06v73.414c0 25.92 14.973 43.147 39.444 43.147s39.284-17.227 39.284-43.147V3.06h16.9v73.414c0 35.419-22.057 58.6-56.188 58.6-34.293 0-56.348-23.184-56.348-58.6V3.06z"/>
        <path data-name="Path 2143" d="m491.046 132.017-29.3-45.884c-2.415.161-4.83.322-7.245.322h-31.4v45.562h-16.9V3.06h48.3c32.521 0 51.679 16.261 51.679 41.7 0 18.192-9.82 31.716-27.53 37.994l32.36 49.265zm-1.771-87.257c0-17.388-13.685-26.564-36.063-26.564h-30.107v53.127h30.107c22.378 0 36.063-9.176 36.063-26.563"/>
    </g>
</svg>
