<svg id="call" xmlns="http://www.w3.org/2000/svg" width="20" height="19.997" viewBox="0 0 20 19.997">
  <path id="call-2" data-name="call" d="M15.075,18.25a6.73,6.73,0,0,1-3.143-1.071A20.432,20.432,0,0,1,7,13.486,18.745,18.745,0,0,1,3.289,8.552C1.974,6.159,2.2,4.9,2.448,4.369a3.34,3.34,0,0,1,1.309-1.4A6.3,6.3,0,0,1,4.78,2.421l.1-.043a.955.955,0,0,1,.784-.072,2.3,2.3,0,0,1,.745.571A12.373,12.373,0,0,1,8.27,5.643a2.752,2.752,0,0,1,.365,1.133A1.791,1.791,0,0,1,8.18,7.84c-.047.064-.093.125-.138.184-.272.357-.331.46-.292.645A6.774,6.774,0,0,0,9.4,11.116a6.5,6.5,0,0,0,2.419,1.61c.192.041.3-.021.666-.3.053-.04.107-.082.164-.124a1.8,1.8,0,0,1,1.081-.484h0a2.59,2.59,0,0,1,1.138.4,13.633,13.633,0,0,1,2.755,1.849,2.3,2.3,0,0,1,.573.743.963.963,0,0,1-.072.786c-.013.029-.028.062-.043.1a6.3,6.3,0,0,1-.546,1.021,3.337,3.337,0,0,1-1.406,1.306A2.408,2.408,0,0,1,15.075,18.25Z" transform="translate(-0.257 -0.25)" fill="#ef6408"/>
  <path id="패스_3654" data-name="패스 3654" d="M0,0H20V20H0Z" fill="none"/>
</svg>
