<svg id="clock" xmlns="http://www.w3.org/2000/svg" width="32" height="32" viewBox="0 0 32 32">
  <g id="clock-2" data-name="clock">
    <path id="Vector" d="M13.333,0A13.333,13.333,0,1,0,26.667,13.333,13.355,13.355,0,0,0,13.333,0Zm5.8,18.093a1,1,0,0,1-.867.493.893.893,0,0,1-.507-.147l-4.133-2.467a3.932,3.932,0,0,1-1.787-3.147V7.36a1,1,0,0,1,2,0v5.467a1.971,1.971,0,0,0,.813,1.427l4.133,2.467A.987.987,0,0,1,19.133,18.093Z" transform="translate(2.667 2.667)" fill="#666"/>
    <path id="Vector-2" data-name="Vector" d="M0,0H32V32H0Z" transform="translate(32 32) rotate(180)" fill="none" opacity="0"/>
  </g>
</svg>
