<svg id="email" xmlns="http://www.w3.org/2000/svg" width="20" height="20" viewBox="0 0 20 20">
  <rect id="사각형_3871" data-name="사각형 3871" width="20" height="20" fill="none"/>
  <g id="mail" transform="translate(0 2.5)">
    <path id="패스_3650" data-name="패스 3650" d="M23.476,7.268H4.8a.665.665,0,0,0-.664.665V9.269a.227.227,0,0,0,.121.161l9.815,5.606a.166.166,0,0,0,.167,0l9.518-5.6c.053-.03.2-.109.249-.145s.131-.084.131-.162V7.933a.665.665,0,0,0-.664-.664Z" transform="translate(-4.14 -7.268)" fill="#ef6408"/>
    <path id="패스_3651" data-name="패스 3651" d="M29.57,12.824a.167.167,0,0,0-.167,0l-5.386,3.169a.165.165,0,0,0-.038.256l5.387,5.807a.166.166,0,0,0,.287-.113V12.968a.166.166,0,0,0-.083-.144Z" transform="translate(-9.652 -8.809)" fill="#ef6408"/>
    <path id="패스_3652" data-name="패스 3652" d="M17.048,18.68a.165.165,0,0,0-.206-.03l-2.159,1.271a.842.842,0,0,1-.833.006l-1.9-1.085a.166.166,0,0,0-.195.022L4.54,25.555a.166.166,0,0,0,.03.265.647.647,0,0,0,.33.1H23.381a.166.166,0,0,0,.122-.279Z" transform="translate(-4.237 -10.431)" fill="#ef6408"/>
    <path id="패스_3653" data-name="패스 3653" d="M10.071,16.5a.166.166,0,0,0-.03-.266L4.387,13a.166.166,0,0,0-.247.144v8.473a.165.165,0,0,0,.279.121L10.071,16.5Z" transform="translate(-4.14 -8.86)" fill="#ef6408"/>
  </g>
</svg>
