<svg id="id" xmlns="http://www.w3.org/2000/svg" width="24" height="24" viewBox="0 0 24 24">
  <rect id="사각형_3755" data-name="사각형 3755" width="24" height="24" fill="none"/>
  <g id="id-badge-solid" transform="translate(4.399 1.866)">
    <path id="패스_3448" data-name="패스 3448" d="M19.076,16.193a2.653,2.653,0,1,1-2.653-2.653A2.653,2.653,0,0,1,19.076,16.193Z" transform="translate(-8.896 -6.302)" fill="#bbb"/>
    <path id="패스_3449" data-name="패스 3449" d="M18.763,3.254A1.254,1.254,0,0,0,17.509,2H16.254A1.254,1.254,0,0,0,15,3.254V7.018h3.763Z" transform="translate(-9.355 -2)" fill="#bbb"/>
    <path id="패스_3450" data-name="패스 3450" d="M10.163,25.764a.709.709,0,0,0-.163.458v1.424H20.036V26.2a.7.7,0,0,0-.163-.458,6.21,6.21,0,0,0-4.855-2.057,6.21,6.21,0,0,0-4.855,2.076Z" transform="translate(-7.491 -10.083)" fill="#bbb"/>
    <path id="패스_3451" data-name="패스 3451" d="M19.8,6H16.663V7.254H19.8V22.308H7.254V7.254h3.136V6H7.254A1.254,1.254,0,0,0,6,7.254V22.308a1.254,1.254,0,0,0,1.254,1.254H19.8a1.254,1.254,0,0,0,1.254-1.254V7.254A1.254,1.254,0,0,0,19.8,6Z" transform="translate(-6 -3.491)" fill="#bbb"/>
  </g>
</svg>
