<svg id="image" xmlns="http://www.w3.org/2000/svg" width="32" height="32" viewBox="0 0 32 32">
  <g id="gallery">
    <path id="Vector" d="M.707,2.64.68,2.667A8.249,8.249,0,0,1,0,0,8.19,8.19,0,0,0,.707,2.64Z" transform="translate(2.733 22.707)" fill="#666"/>
    <path id="Vector-2" data-name="Vector" d="M6.347,3.173A3.173,3.173,0,1,1,3.173,0,3.173,3.173,0,0,1,6.347,3.173Z" transform="translate(8.827 7.493)" fill="#666"/>
    <path id="Vector-3" data-name="Vector" d="M18.92,0H7.747C2.893,0,0,2.893,0,7.747V18.92a8.964,8.964,0,0,0,.747,3.787c1.147,2.533,3.6,3.96,7,3.96H18.92c4.853,0,7.747-2.893,7.747-7.747V7.747C26.667,2.893,23.773,0,18.92,0Zm5.573,14a2.973,2.973,0,0,0-3.76,0l-5.547,4.76a2.973,2.973,0,0,1-3.76,0l-.453-.373a2.961,2.961,0,0,0-3.52-.187L2.467,21.547A7.11,7.11,0,0,1,2,18.92V7.747C2,3.987,3.987,2,7.747,2H18.92c3.76,0,5.747,1.987,5.747,5.747v6.4Z" transform="translate(2.667 2.667)" fill="#666"/>
    <path id="Vector-4" data-name="Vector" d="M0,0H32V32H0Z" fill="none" opacity="0"/>
  </g>
</svg>
