<svg xmlns="http://www.w3.org/2000/svg" width="36" height="72" viewBox="0 0 36 72">
    <defs>
        <clipPath id="xz3riynpta">
            <path data-name="사각형 10" style="fill:none" d="M0 0h36v36H0z"/>
        </clipPath>
        <clipPath id="hr2xzxib7b">
            <path data-name="사각형 10" style="fill:#ef6408" d="M0 0h36v36H0z"/>
        </clipPath>
    </defs>
    <g data-name="그룹 1781">
        <g data-name="그룹 6">
            <g data-name="그룹 5" style="clip-path:url(#xz3riynpta)">
                <path data-name="패스 2" d="m3.528 25.677-.03.03a9.3 9.3 0 0 1-.765-3 9.208 9.208 0 0 0 .8 2.97" transform="translate(.342 2.838)" style="fill:#666"/>
                <path data-name="패스 3" d="M15.967 11.063a3.57 3.57 0 1 1-3.567-3.57 3.57 3.57 0 0 1 3.571 3.57z" transform="translate(1.104 .937)" style="fill:#666"/>
                <path data-name="패스 4" d="M24.232 2.667H11.663c-5.461 0-8.715 3.255-8.715 8.715v12.57a10.083 10.083 0 0 0 .84 4.26c1.289 2.85 4.05 4.455 7.875 4.455h12.57c5.458 0 8.715-3.255 8.715-8.715v-12.57c0-5.461-3.257-8.715-8.715-8.715m6.27 15.75a3.345 3.345 0 0 0-4.23 0l-6.243 5.355a3.344 3.344 0 0 1-4.229 0l-.51-.42a3.333 3.333 0 0 0-3.961-.21l-5.607 3.765a7.988 7.988 0 0 1-.523-2.955v-12.57c0-4.23 2.235-6.465 6.465-6.465h12.57c4.229 0 6.465 2.235 6.465 6.465v7.2z" transform="translate(.368 .333)" style="fill:#666"/>
            </g>
        </g>
        <g data-name="그룹 1766">
            <g data-name="그룹 5" style="clip-path:url(#hr2xzxib7b)" transform="translate(0 36)">
                <path data-name="패스 2" d="m3.528 25.677-.03.03a9.3 9.3 0 0 1-.765-3 9.208 9.208 0 0 0 .8 2.97" transform="translate(.342 2.838)" style="fill:#ef6408"/>
                <path data-name="패스 3" d="M15.967 11.063a3.57 3.57 0 1 1-3.567-3.57 3.57 3.57 0 0 1 3.571 3.57z" transform="translate(1.104 .937)" style="fill:#ef6408"/>
                <path data-name="패스 4" d="M24.232 2.667H11.663c-5.461 0-8.715 3.255-8.715 8.715v12.57a10.083 10.083 0 0 0 .84 4.26c1.289 2.85 4.05 4.455 7.875 4.455h12.57c5.458 0 8.715-3.255 8.715-8.715v-12.57c0-5.461-3.257-8.715-8.715-8.715m6.27 15.75a3.345 3.345 0 0 0-4.23 0l-6.243 5.355a3.344 3.344 0 0 1-4.229 0l-.51-.42a3.333 3.333 0 0 0-3.961-.21l-5.607 3.765a7.988 7.988 0 0 1-.523-2.955v-12.57c0-4.23 2.235-6.465 6.465-6.465h12.57c4.229 0 6.465 2.235 6.465 6.465v7.2z" transform="translate(.368 .333)" style="fill:#ef6408"/>
            </g>
        </g>
    </g>
</svg>
