<svg id="like" xmlns="http://www.w3.org/2000/svg" width="20" height="20" viewBox="0 0 20 20">
  <g id="like-2" data-name="like">
    <path id="Vector" d="M0,13.521V5.054a1.685,1.685,0,0,1,.283-.933L2.558.738A1.8,1.8,0,0,1,4.567.1,1.815,1.815,0,0,1,5.75,2.1L5.317,4.829a.836.836,0,0,0,.175.65.775.775,0,0,0,.575.258H9.492a1.866,1.866,0,0,1,1.558.733A1.756,1.756,0,0,1,11.217,8.1l-2.05,6.242a2.677,2.677,0,0,1-2.5,1.875H3.417a2.717,2.717,0,0,1-1.7-.55L.65,14.838A1.654,1.654,0,0,1,0,13.521Z" transform="translate(6.992 1.887)" fill="#bbb"/>
    <path id="Vector-2" data-name="Vector" d="M2.675,0H1.817C.525,0,0,.5,0,1.733v8.383C0,11.35.525,11.85,1.817,11.85h.858c1.292,0,1.817-.5,1.817-1.733V1.733C4.492.5,3.967,0,2.675,0Z" transform="translate(1.667 5.317)" fill="#bbb"/>
    <path id="Vector-3" data-name="Vector" d="M0,0H20V20H0Z" transform="translate(20 20) rotate(180)" fill="none" opacity="0"/>
  </g>
</svg>
