<svg id="레이어_1" data-name="레이어 1" xmlns="http://www.w3.org/2000/svg" width="165.5" height="55.5" viewBox="0 0 165.5 55.5">
  <defs>
    <style>
      .cls-1 {
        fill: #ff3d00;
      }
    </style>
  </defs>
  <g id="그룹_5641" data-name="그룹 5641">
    <path id="패스_3446" data-name="패스 3446" class="cls-1" d="M6.7,7.7c4.6-3.6,10.5-5.4,18-5.4S38.1,4.1,42.5,7.8a18.2,18.2,0,0,1,6.8,15.5V34.8c0,6.8-2.2,11.9-6.7,15.5s-10.4,5.2-17.9,5.2S11.1,53.8,6.6,50.3,0,41.6,0,34.8V23.3A19.3,19.3,0,0,1,6.7,7.7Zm14,31.9a5.4,5.4,0,0,0,4,1.5,5.3,5.3,0,0,0,4-1.5,5.8,5.8,0,0,0,1.4-4.5V22.7a5.8,5.8,0,0,0-1.4-4.5,5.3,5.3,0,0,0-4-1.5,5.4,5.4,0,0,0-4,1.5,6.6,6.6,0,0,0-1.5,4.5V35.1A6.2,6.2,0,0,0,20.7,39.6Zm79.2-7.2V52.8a2,2,0,0,1-2,2H83.8a2,2,0,0,1-2-2V32.9c0-2.7-1.3-4.1-3.7-4.1s-3.7,1.4-3.7,4.1V52.8a2,2,0,0,1-2,2H58.3a2.2,2.2,0,0,1-2-2V18.3a2.2,2.2,0,0,1,2-2h13a2,2,0,0,1,2,2v2.5a12.4,12.4,0,0,1,5.1-3.7,17.8,17.8,0,0,1,7.1-1.5,13.5,13.5,0,0,1,10.2,4.3C98.5,22.7,99.9,26.8,99.9,32.4Zm22.2,22.4H108.8a2.2,2.2,0,0,1-2-2V18.3a2.2,2.2,0,0,1,2-2h13.3a2.1,2.1,0,0,1,2,2V52.8a2.1,2.1,0,0,1-2,2ZM123.7,2v9a2,2,0,0,1-2,2H109.2a2,2,0,0,1-2-2V2a2.2,2.2,0,0,1,2-2h12.5A2.1,2.1,0,0,1,123.7,2Zm29.9,27.3v8.1c0,2.5,1.1,3.7,3.2,3.7h6.7a2,2,0,0,1,2,2v9.7a2,2,0,0,1-2,2h-8.3c-12.3,0-18.5-5.3-18.5-15.9V29.3h-5.8a2.2,2.2,0,0,1-2-2v-9a2,2,0,0,1,2-2h5.8V4.3a1.8,1.8,0,0,1,.6-1.4,2,2,0,0,1,1.4-.6h12.9a1.7,1.7,0,0,1,1.4.6,1.5,1.5,0,0,1,.6,1.4v12h9.3a2,2,0,0,1,2,2v9a2.1,2.1,0,0,1-2,2Z"/>
  </g>
</svg>
