<svg xmlns="http://www.w3.org/2000/svg" width="225.291" height="225.291" viewBox="0 0 225.291 225.291">
    <g data-name="그룹 2144">
        <path data-name="사각형 1859" transform="rotate(45 -28.357 68.461)" style="fill:#f8f8f8;stroke:#ff3d00;stroke-width:2px" d="M0 0h27.357v27.357H0z"/>
        <path data-name="사각형 1860" transform="rotate(45 -28.357 68.461)" style="stroke-miterlimit:10;fill:#f8f8f8;stroke:#ff3d00;stroke-width:2px" d="M0 0h27.357v27.357H0z"/>
        <path data-name="사각형 1861" transform="rotate(45 -42.036 101.485)" style="fill:#f8f8f8;stroke:#ff3d00;stroke-width:2px" d="M0 0h27.357v27.357H0z"/>
        <path data-name="사각형 1862" transform="rotate(45 -42.036 101.485)" style="stroke-miterlimit:10;fill:#f8f8f8;stroke:#ff3d00;stroke-width:2px" d="M0 0h27.357v27.357H0z"/>
        <path data-name="사각형 1863" transform="rotate(45 -55.714 134.508)" style="fill:#f8f8f8;stroke:#ff3d00;stroke-width:2px" d="M0 0h27.357v27.357H0z"/>
        <path data-name="사각형 1864" transform="rotate(45 -55.714 134.508)" style="stroke-miterlimit:10;fill:#f8f8f8;stroke:#ff3d00;stroke-width:2px" d="M0 0h27.357v27.357H0z"/>
        <path data-name="사각형 1865" transform="rotate(45 -69.393 167.532)" style="fill:#f8f8f8;stroke:#ff3d00;stroke-width:2px" d="M0 0h27.357v27.357H0z"/>
        <path data-name="사각형 1866" transform="rotate(45 -69.393 167.532)" style="stroke-miterlimit:10;fill:#f8f8f8;stroke:#ff3d00;stroke-width:2px" d="M0 0h27.357v27.357H0z"/>
        <path data-name="사각형 1867" transform="rotate(45 -83.072 200.554)" style="fill:#f8f8f8;stroke:#ff3d00;stroke-width:2px" d="M0 0h27.357v27.357H0z"/>
        <path data-name="사각형 1868" transform="rotate(45 -83.072 200.554)" style="stroke-miterlimit:10;fill:#f8f8f8;stroke:#ff3d00;stroke-width:2px" d="M0 0h27.357v27.357H0z"/>
        <path data-name="사각형 1869" transform="rotate(45 -96.75 233.578)" style="fill:#f8f8f8;stroke:#ff3d00;stroke-width:2px" d="M0 0h27.357v27.357H0z"/>
        <path data-name="사각형 1870" transform="rotate(45 -96.75 233.578)" style="stroke-miterlimit:10;fill:#f8f8f8;stroke:#ff3d00;stroke-width:2px" d="M0 0h27.357v27.357H0z"/>
        <path data-name="사각형 1871" transform="rotate(45 4.666 82.14)" style="fill:#f8f8f8;stroke:#ff3d00;stroke-width:2px" d="M0 0h27.357v27.357H0z"/>
        <path data-name="사각형 1872" transform="rotate(45 4.666 82.14)" style="stroke-miterlimit:10;fill:#f8f8f8;stroke:#ff3d00;stroke-width:2px" d="M0 0h27.357v27.357H0z"/>
        <path data-name="사각형 1873" transform="rotate(45 -9.012 115.163)" style="fill:#f8f8f8;stroke:#ff3d00;stroke-width:2px" d="M0 0h27.357v27.357H0z"/>
        <path data-name="사각형 1874" transform="rotate(45 -9.012 115.163)" style="stroke-miterlimit:10;fill:#f8f8f8;stroke:#ff3d00;stroke-width:2px" d="M0 0h27.357v27.357H0z"/>
        <path data-name="사각형 1875" transform="rotate(45 -22.691 148.187)" style="fill:#f8f8f8;stroke:#ff3d00;stroke-width:2px" d="M0 0h27.357v27.357H0z"/>
        <path data-name="사각형 1876" transform="rotate(45 -22.691 148.187)" style="stroke-miterlimit:10;fill:#f8f8f8;stroke:#ff3d00;stroke-width:2px" d="M0 0h27.357v27.357H0z"/>
        <path data-name="사각형 1877" transform="rotate(45 -36.37 181.21)" style="fill:#f8f8f8;stroke:#ff3d00;stroke-width:2px" d="M0 0h27.357v27.357H0z"/>
        <path data-name="사각형 1878" transform="rotate(45 -36.37 181.21)" style="stroke-miterlimit:10;fill:#f8f8f8;stroke:#ff3d00;stroke-width:2px" d="M0 0h27.357v27.357H0z"/>
        <path data-name="사각형 1879" transform="rotate(45 -50.048 214.233)" style="fill:#f8f8f8;stroke:#ff3d00;stroke-width:2px" d="M0 0h27.357v27.357H0z"/>
        <path data-name="사각형 1880" transform="rotate(45 -50.048 214.233)" style="stroke-miterlimit:10;fill:#f8f8f8;stroke:#ff3d00;stroke-width:2px" d="M0 0h27.357v27.357H0z"/>
        <path data-name="사각형 1881" transform="rotate(45 -63.728 247.256)" style="fill:#f8f8f8;stroke:#ff3d00;stroke-width:2px" d="M0 0h27.357v27.357H0z"/>
        <path data-name="사각형 1882" transform="rotate(45 -63.728 247.256)" style="stroke-miterlimit:10;fill:#f8f8f8;stroke:#ff3d00;stroke-width:2px" d="M0 0h27.357v27.357H0z"/>
        <path data-name="사각형 1883" transform="rotate(45 -168.463 126.495)" style="fill:#f8f8f8;stroke:#ff3d00;stroke-width:2px" d="M0 0h27.357v27.357H0z"/>
        <path data-name="사각형 1884" transform="rotate(45 -168.463 126.495)" style="stroke-miterlimit:10;fill:#f8f8f8;stroke:#ff3d00;stroke-width:2px" d="M0 0h27.357v27.357H0z"/>
        <path data-name="사각형 1885" transform="rotate(45 -149.119 173.197)" style="fill:#f8f8f8;stroke:#ff3d00;stroke-width:2px" d="M0 0h27.357v27.357H0z"/>
        <path data-name="사각형 1886" transform="rotate(45 -149.119 173.197)" style="stroke-miterlimit:10;fill:#f8f8f8;stroke:#ff3d00;stroke-width:2px" d="M0 0h27.357v27.357H0z"/>
        <path data-name="사각형 1887" transform="rotate(45 -129.774 219.899)" style="fill:#f8f8f8;stroke:#ff3d00;stroke-width:2px" d="M0 0h27.357v27.357H0z"/>
        <path data-name="사각형 1888" transform="rotate(45 -129.774 219.899)" style="stroke-miterlimit:10;fill:#f8f8f8;stroke:#ff3d00;stroke-width:2px" d="M0 0h27.357v27.357H0z"/>
        <path data-name="사각형 1889" transform="rotate(45 -110.43 266.6)" style="fill:#f8f8f8;stroke:#ff3d00;stroke-width:2px" d="M0 0h27.357v27.357H0z"/>
        <path data-name="사각형 1890" transform="rotate(45 -110.43 266.6)" style="stroke-miterlimit:10;fill:#f8f8f8;stroke:#ff3d00;stroke-width:2px" d="M0 0h27.357v27.357H0z"/>
        <path data-name="사각형 1891" transform="rotate(45 62.7 222.246)" style="fill:#f8f8f8;stroke:#ff3d00;stroke-width:2px" d="M0 0h27.357v27.357H0z"/>
        <path data-name="사각형 1892" transform="rotate(45 62.7 222.246)" style="stroke-miterlimit:10;fill:#f8f8f8;stroke:#ff3d00;stroke-width:2px" d="M0 0h27.357v27.357H0z"/>
        <path data-name="사각형 1893" transform="rotate(45 15.998 241.59)" style="fill:#f8f8f8;stroke:#ff3d00;stroke-width:2px" d="M0 0h27.357v27.357H0z"/>
        <path data-name="사각형 1894" transform="rotate(45 15.998 241.59)" style="stroke-miterlimit:10;fill:#f8f8f8;stroke:#ff3d00;stroke-width:2px" d="M0 0h27.357v27.357H0z"/>
        <path data-name="사각형 1895" transform="rotate(45 -30.704 260.935)" style="fill:#f8f8f8;stroke:#ff3d00;stroke-width:2px" d="M0 0h27.357v27.357H0z"/>
        <path data-name="사각형 1896" transform="rotate(45 -30.704 260.935)" style="stroke-miterlimit:10;fill:#f8f8f8;stroke:#ff3d00;stroke-width:2px" d="M0 0h27.357v27.357H0z"/>
        <path data-name="사각형 1897" transform="rotate(45 -77.406 280.28)" style="fill:#f8f8f8;stroke:#ff3d00;stroke-width:2px" d="M0 0h27.357v27.357H0z"/>
        <path data-name="사각형 1898" transform="rotate(45 -77.406 280.28)" style="stroke-miterlimit:10;fill:#f8f8f8;stroke:#ff3d00;stroke-width:2px" d="M0 0h27.357v27.357H0z"/>
        <path data-name="사각형 1899" transform="rotate(45 -201.486 112.816)" style="fill:#f8f8f8;stroke:#ff3d00;stroke-width:2px" d="M0 0h27.357v27.357H0z"/>
        <path data-name="사각형 1902" transform="rotate(45 -182.14 159.519)" style="fill:#f8f8f8;stroke:#ff3d00;stroke-width:2px" d="M0 0h27.357v27.357H0z"/>
        <path data-name="사각형 1903" transform="rotate(45 -182.14 159.519)" style="stroke-miterlimit:10;fill:#f8f8f8;stroke:#ff3d00;stroke-width:2px" d="M0 0h27.357v27.357H0z"/>
        <path data-name="사각형 1904" transform="rotate(45 -162.796 206.22)" style="fill:#f8f8f8;stroke:#ff3d00;stroke-width:2px" d="M0 0h27.357v27.357H0z"/>
        <path data-name="사각형 1905" transform="rotate(45 -162.796 206.22)" style="stroke-miterlimit:10;fill:#f8f8f8;stroke:#ff3d00;stroke-width:2px" d="M0 0h27.357v27.357H0z"/>
        <path data-name="사각형 1906" transform="rotate(45 -143.452 252.922)" style="fill:#f8f8f8;stroke:#ff3d00;stroke-width:2px" d="M0 0h27.357v27.357H0z"/>
        <path data-name="사각형 1907" transform="rotate(45 -143.452 252.922)" style="stroke-miterlimit:10;fill:#f8f8f8;stroke:#ff3d00;stroke-width:2px" d="M0 0h27.357v27.357H0z"/>
        <path data-name="사각형 1908" transform="rotate(45 -44.383 293.958)" style="fill:#f8f8f8;stroke:#ff3d00;stroke-width:2px" d="M0 0h27.357v27.357H0z"/>
        <path data-name="사각형 1909" transform="rotate(45 -44.383 293.958)" style="stroke-miterlimit:10;fill:#f8f8f8;stroke:#ff3d00;stroke-width:2px" d="M0 0h27.357v27.357H0z"/>
        <path data-name="사각형 1910" transform="rotate(45 2.32 274.613)" style="fill:#f8f8f8;stroke:#ff3d00;stroke-width:2px" d="M0 0h27.357v27.357H0z"/>
        <path data-name="사각형 1911" transform="rotate(45 2.32 274.613)" style="stroke-miterlimit:10;fill:#f8f8f8;stroke:#ff3d00;stroke-width:2px" d="M0 0h27.357v27.357H0z"/>
        <path data-name="사각형 1912" transform="rotate(45 49.021 255.268)" style="fill:#f8f8f8;stroke:#ff3d00;stroke-width:2px" d="M0 0h27.357v27.357H0z"/>
        <path data-name="사각형 1913" transform="rotate(45 49.021 255.268)" style="stroke-miterlimit:10;fill:#f8f8f8;stroke:#ff3d00;stroke-width:2px" d="M0 0h27.357v27.357H0z"/>
        <path data-name="사각형 1914" transform="rotate(45 95.723 235.924)" style="fill:#f8f8f8;stroke:#ff3d00;stroke-width:2px" d="M0 0h27.357v27.357H0z"/>
        <path data-name="사각형 1917" transform="rotate(45 -124.107 299.624)" style="fill:#f8f8f8;stroke:#ff3d00;stroke-width:2px" d="M0 0h27.357v27.357H0z"/>
        <path data-name="사각형 1918" transform="rotate(45 -124.107 299.624)" style="stroke-miterlimit:10;fill:#f8f8f8;stroke:#ff3d00;stroke-width:2px" d="M0 0h27.357v27.357H0z"/>
        <path data-name="사각형 1919" transform="rotate(45 -91.085 313.302)" style="fill:#f8f8f8;stroke:#ff3d00;stroke-width:2px" d="M0 0h27.357v27.357H0z"/>
        <path data-name="사각형 1920" transform="rotate(45 -91.085 313.302)" style="stroke-miterlimit:10;fill:#f8f8f8;stroke:#ff3d00;stroke-width:2px" d="M0 0h27.357v27.357H0z"/>
        <path data-name="사각형 1921" transform="rotate(45 -121.275 339.487)" style="fill:#f8f8f8;stroke:#ff3d00;stroke-width:2px" d="M0 0h27.357v27.357H0z"/>
        <path data-name="사각형 1924" transform="rotate(45 -14.679 35.438)" style="fill:#f8f8f8;stroke:#ff3d00;stroke-width:2px" d="M0 0h27.357v27.357H0z"/>
        <path data-name="사각형 1927" transform="rotate(45 18.345 49.117)" style="fill:#f8f8f8;stroke:#ff3d00;stroke-width:2px" d="M0 0h27.357v27.357H0z"/>
    </g>
</svg>
