<svg xmlns="http://www.w3.org/2000/svg" width="137.484" height="137.484" viewBox="0 0 137.484 137.484">
    <g data-name="그룹 2143">
        <g data-name="그룹 2142">
            <g data-name="그룹 2141">
                <path data-name="사각형 1860" transform="rotate(45 -71.616 172.897)" style="stroke-miterlimit:10;stroke:#000" d="M0 0h16.733v16.733H0z"/>
                <path data-name="사각형 1862" transform="rotate(45 -63.25 152.697)" style="stroke-miterlimit:10;stroke:#000" d="M0 0h16.733v16.733H0z"/>
                <path data-name="사각형 1864" transform="rotate(45 -54.884 132.5)" style="stroke-miterlimit:10;stroke:#000" d="M0 0h16.733v16.733H0z"/>
                <path data-name="사각형 1866" transform="rotate(45 -46.517 112.3)" style="stroke-miterlimit:10;stroke:#000" d="M0 0h16.733v16.733H0z"/>
                <path data-name="사각형 1868" transform="rotate(45 -38.151 92.102)" style="stroke-miterlimit:10;stroke:#000" d="M0 0h16.733v16.733H0z"/>
                <path data-name="사각형 1870" transform="rotate(45 -29.784 71.905)" style="stroke-miterlimit:10;stroke:#000" d="M0 0h16.733v16.733H0z"/>
                <path data-name="사각형 1872" transform="rotate(45 -51.417 181.262)" style="stroke-miterlimit:10;stroke:#000" d="M0 0h16.733v16.733H0z"/>
                <path data-name="사각형 1874" transform="rotate(45 -43.052 161.065)" style="stroke-miterlimit:10;stroke:#000" d="M0 0h16.733v16.733H0z"/>
                <path data-name="사각형 1876" transform="rotate(45 -34.684 140.865)" style="stroke-miterlimit:10;stroke:#000" d="M0 0h16.733v16.733H0z"/>
                <path data-name="사각형 1878" transform="rotate(45 -26.319 120.667)" style="stroke-miterlimit:10;stroke:#000" d="M0 0h16.733v16.733H0z"/>
                <path data-name="사각형 1880" transform="rotate(45 -17.953 100.468)" style="stroke-miterlimit:10;stroke:#000" d="M0 0h16.733v16.733H0z"/>
                <path data-name="사각형 1882" transform="rotate(45 -9.585 80.27)" style="stroke-miterlimit:10;stroke:#000" d="M0 0h16.733v16.733H0z"/>
                <path data-name="사각형 1884" transform="rotate(45 -107.113 87.2)" style="stroke-miterlimit:10;stroke:#000" d="M0 0h16.733v16.733H0z"/>
                <path data-name="사각형 1886" transform="rotate(45 -78.549 75.368)" style="stroke-miterlimit:10;stroke:#000" d="M0 0h16.733v16.733H0z"/>
                <path data-name="사각형 1888" transform="rotate(45 -49.984 63.536)" style="stroke-miterlimit:10;stroke:#000" d="M0 0h16.733v16.733H0z"/>
                <path data-name="사각형 1890" transform="rotate(45 -21.417 51.704)" style="stroke-miterlimit:10;stroke:#000" d="M0 0h16.733v16.733H0z"/>
                <path data-name="사각형 1892" transform="rotate(45 34.278 145.766)" style="stroke-miterlimit:10;stroke:#000" d="M0 0h16.733v16.733H0z"/>
                <path data-name="사각형 1894" transform="rotate(45 22.446 117.201)" style="stroke-miterlimit:10;stroke:#000" d="M0 0h16.733v16.733H0z"/>
                <path data-name="사각형 1896" transform="rotate(45 10.613 88.635)" style="stroke-miterlimit:10;stroke:#000" d="M0 0h16.733v16.733H0z"/>
                <path data-name="사각형 1898" transform="rotate(45 -1.218 60.073)" style="stroke-miterlimit:10;stroke:#000" d="M0 0h16.733v16.733H0z"/>
                <path data-name="사각형 1899" transform="rotate(45 -127.311 78.835)" style="stroke:#000" d="M0 0h16.733v16.733H0z"/>
                <path data-name="사각형 1903" transform="rotate(45 -98.745 67.002)" style="stroke-miterlimit:10;stroke:#000" d="M0 0h16.733v16.733H0z"/>
                <path data-name="사각형 1905" transform="rotate(45 -70.18 55.17)" style="stroke-miterlimit:10;stroke:#000" d="M0 0h16.733v16.733H0z"/>
                <path data-name="사각형 1907" transform="rotate(45 -41.617 43.339)" style="stroke-miterlimit:10;stroke:#000" d="M0 0h16.733v16.733H0z"/>
                <path data-name="사각형 1909" transform="rotate(45 18.98 68.438)" style="stroke-miterlimit:10;stroke:#000" d="M0 0h16.733v16.733H0z"/>
                <path data-name="사각형 1911" transform="rotate(45 30.812 97.003)" style="stroke-miterlimit:10;stroke:#000" d="M0 0h16.733v16.733H0z"/>
                <path data-name="사각형 1913" transform="rotate(45 42.645 125.569)" style="stroke-miterlimit:10;stroke:#000" d="M0 0h16.733v16.733H0z"/>
                <path data-name="사각형 1914" transform="rotate(45 54.477 154.134)" style="stroke:#000" d="M0 0h16.733v16.733H0z"/>
                <path data-name="사각형 1918" transform="rotate(45 -13.05 31.506)" style="stroke-miterlimit:10;stroke:#000" d="M0 0h16.733v16.733H0z"/>
                <path data-name="사각형 1920" transform="rotate(45 7.148 39.872)" style="stroke-miterlimit:10;stroke:#000" d="M0 0h16.733v16.733H0z"/>
                <path data-name="사각형 1921" transform="rotate(45 5.417 15.49)" style="stroke:#000" d="M0 0h16.733v16.733H0z"/>
                <path data-name="사각형 1924" transform="rotate(45 -79.983 193.095)" style="stroke:#000" d="M0 0h16.733v16.733H0z"/>
                <path data-name="사각형 1927" transform="rotate(45 -59.784 201.462)" style="stroke:#000" d="M0 0h16.733v16.733H0z"/>
            </g>
        </g>
    </g>
</svg>
