<svg id="main" xmlns="http://www.w3.org/2000/svg" xmlns:xlink="http://www.w3.org/1999/xlink" width="388" height="300" viewBox="0 0 388 300">
  <defs>
    <clipPath id="clip-path">
      <rect id="사각형_3815" data-name="사각형 3815" width="386.303" height="299.88" fill="none"/>
    </clipPath>
  </defs>
  <rect id="사각형_3872" data-name="사각형 3872" width="388" height="300" fill="none"/>
  <g id="그룹_5756" data-name="그룹 5756" transform="translate(1 0.119)">
    <path id="패스_3469" data-name="패스 3469" d="M1188.044,1022.108h-28.171l-4.443-20.829H1183.6Z" transform="translate(-964.807 -836.087)" fill="#bbb"/>
    <path id="패스_3470" data-name="패스 3470" d="M1182.271,1022.108H1154.1l-4.443-20.829h28.171Z" transform="translate(-959.987 -836.087)" fill="#beb2bd"/>
    <path id="패스_3471" data-name="패스 3471" d="M1179.678,1009.959h-28.171l-1.85-8.681h28.171Z" transform="translate(-959.987 -836.087)" fill="#030028"/>
    <g id="그룹_5667" data-name="그룹 5667" transform="translate(0 0.001)">
      <g id="그룹_5666" data-name="그룹 5666" transform="translate(0 0)" clip-path="url(#clip-path)">
        <path id="패스_3472" data-name="패스 3472" d="M1122.716,1127.53h-46.894a4.329,4.329,0,0,0-4.329,4.329h55.551a4.329,4.329,0,0,0-4.328-4.329" transform="translate(-894.718 -941.511)" fill="#cfc6ce"/>
        <path id="패스_3473" data-name="패스 3473" d="M765.549,909.783,763.7,921.348a4.482,4.482,0,0,0,4.482,3.917H893.4a7.08,7.08,0,0,0,6.586-5.432l2.136-10.05Z" transform="translate(-637.707 -759.688)" fill="#beb2bd"/>
        <path id="패스_3474" data-name="패스 3474" d="M908.814,529.223l14.051-66.106a6.784,6.784,0,0,0-2.33-6.92l-125.656-.981a7.08,7.08,0,0,0-6.586,5.432l-15.505,72.947h0l-1.207,5.677a4.264,4.264,0,0,0,4.277,5.432H900.092a7.08,7.08,0,0,0,6.586-5.432Z" transform="translate(-644.184 -380.115)" fill="#beb2bd"/>
        <path id="패스_3475" data-name="패스 3475" d="M1498.05,459.783l-34.974-.273,16.389,85.647,2.344,2.328c1.435-1,2.022-2.927,2.383-4.627l2.136-10.05L1500.38,466.7a6.783,6.783,0,0,0-2.33-6.919" transform="translate(-1221.698 -383.7)" fill="#bbb"/>
        <path id="패스_3476" data-name="패스 3476" d="M788.829,550.056a2.132,2.132,0,0,1-2.139-2.716L802.2,474.394a3.54,3.54,0,0,1,3.293-2.716H929.722a2.132,2.132,0,0,1,2.139,2.716L916.355,547.34a3.54,3.54,0,0,1-3.293,2.716Z" transform="translate(-656.851 -393.861)" fill="#fff"/>
        <path id="패스_3477" data-name="패스 3477" d="M915.089,460.648l-15.505,72.947H775.35l15.505-72.947Zm1.155-5.432H792.01a7.079,7.079,0,0,0-6.586,5.432l-15.505,72.947a4.264,4.264,0,0,0,4.277,5.432H898.429a7.08,7.08,0,0,0,6.586-5.432l15.505-72.947a4.264,4.264,0,0,0-4.277-5.432" transform="translate(-642.795 -380.115)" fill="#030028"/>
        <path id="패스_3478" data-name="패스 3478" d="M933.141,591.739a152.667,152.667,0,0,0-32.772-6.556c-23.594-2.211-48.375.073-73.067,4.331a133.789,133.789,0,0,0-13.42,2.869l-10.42,49.02H927.7l10.184-47.914c-1.537-.635-3.112-1.223-4.738-1.75" transform="translate(-670.907 -487.923)" fill="#ef6408" opacity="0.2"/>
        <path id="패스_3479" data-name="패스 3479" d="M935.961,676.933c-11.3-4.316-24.847-4.684-38.042-.764-9.979,2.965-19.8,8.248-29.79,9.468-11.347,1.385-21.406-2.625-31.357-5.9-7.3-2.4-15.146-4.477-23.551-3.66-.449.044-.9.1-1.344.152l-8.416,39.591H927.695Z" transform="translate(-670.906 -562.343)" fill="#ef6408" opacity="0.5"/>
        <path id="패스_3480" data-name="패스 3480" d="M936.266,685.894a93.846,93.846,0,0,0-32.615,10.23c-7.4,3.885-14.549,8.792-22.315,11.164-10.46,3.195-20.689,1.414-30.579,0-11.991-1.719-22.226-1.118-34.7,3.956a99.148,99.148,0,0,0-10.466,4.981l-2.124,9.994H927.7Z" transform="translate(-670.907 -572.736)" fill="#ef6408"/>
        <path id="패스_3481" data-name="패스 3481" d="M764.738,903.8l-2.136,10.05a4.264,4.264,0,0,0,4.277,5.432H891.113a7.08,7.08,0,0,0,6.586-5.432l2.136-10.05Z" transform="translate(-636.686 -754.688)" fill="#ddd"/>
        <rect id="사각형_3794" data-name="사각형 3794" width="89.306" height="6.35" transform="translate(226.1 190.348)" fill="#bbb"/>
        <rect id="사각형_3795" data-name="사각형 3795" width="244.147" height="6.35" transform="translate(6.093 190.348)" fill="#030028"/>
        <path id="패스_3482" data-name="패스 3482" d="M931.9,562.577H878.333a2.116,2.116,0,0,1-2.122-2.7l7.805-36.72a3.513,3.513,0,0,1,3.268-2.7h53.565a2.116,2.116,0,0,1,2.122,2.7l-7.805,36.72a3.513,3.513,0,0,1-3.268,2.7" transform="translate(-731.603 -434.6)" fill="#f0ebf1"/>
        <path id="패스_3483" data-name="패스 3483" d="M920.89,525.441l.485-2.28a3.513,3.513,0,0,1,3.268-2.7h53.565a2.115,2.115,0,0,1,2.122,2.7l-.485,2.28Z" transform="translate(-768.962 -434.6)" fill="#cfc6ce"/>
        <path id="패스_3484" data-name="패스 3484" d="M942.5,530.051a1.415,1.415,0,0,1-1.316,1.086.852.852,0,0,1-.855-1.086,1.415,1.415,0,0,1,1.316-1.086.852.852,0,0,1,.855,1.086" transform="translate(-785.177 -441.697)" fill="#f0ebf1"/>
        <path id="패스_3485" data-name="패스 3485" d="M963.606,530.051a1.415,1.415,0,0,1-1.316,1.086.852.852,0,0,1-.855-1.086,1.415,1.415,0,0,1,1.316-1.086.852.852,0,0,1,.855,1.086" transform="translate(-802.797 -441.697)" fill="#f0ebf1"/>
        <path id="패스_3486" data-name="패스 3486" d="M984.707,530.051a1.415,1.415,0,0,1-1.316,1.086.852.852,0,0,1-.855-1.086,1.415,1.415,0,0,1,1.316-1.086.852.852,0,0,1,.855,1.086" transform="translate(-820.417 -441.697)" fill="#f0ebf1"/>
        <path id="패스_3487" data-name="패스 3487" d="M956.363,609.082h-48.7l5.991-28.188h48.7Z" transform="translate(-757.916 -485.059)" fill="#fff"/>
        <path id="패스_3488" data-name="패스 3488" d="M968.678,608.062H940.341l2.447-11.511h28.337Z" transform="translate(-785.204 -498.132)" fill="#f45183"/>
        <path id="패스_3489" data-name="패스 3489" d="M1147.28,598.908h-7.955l.5-2.358h7.955Z" transform="translate(-951.359 -498.131)" fill="#fbb9cc"/>
        <path id="패스_3490" data-name="패스 3490" d="M1146.2,626.647h-12.772l.5-2.358H1146.7Z" transform="translate(-946.436 -521.294)" fill="#fbb9cc"/>
        <path id="패스_3491" data-name="패스 3491" d="M1138.008,654.385h-10.474l.5-2.358h10.474Z" transform="translate(-941.513 -544.456)" fill="#fbb9cc"/>
        <path id="패스_3492" data-name="패스 3492" d="M1141.6,699.332a3.989,3.989,0,0,1-3.711,3.06,2.4,2.4,0,0,1-2.41-3.06,3.989,3.989,0,0,1,3.711-3.06,2.4,2.4,0,0,1,2.41,3.06" transform="translate(-948.092 -581.401)" fill="#5d47ff"/>
        <path id="패스_3493" data-name="패스 3493" d="M935.359,705.425H922.182l1.945-9.153H937.3Z" transform="translate(-770.041 -581.402)" fill="#8e7eff"/>
        <path id="패스_3494" data-name="패스 3494" d="M1027.254,705.425h-13.177l1.945-9.153H1029.2Z" transform="translate(-846.775 -581.402)" fill="#8e7eff"/>
        <path id="패스_3495" data-name="패스 3495" d="M1300.456,657.538h-41.1a2.115,2.115,0,0,1-2.122-2.7l7.8-36.72a3.513,3.513,0,0,1,3.268-2.7h41.1a2.116,2.116,0,0,1,2.122,2.7l-7.805,36.72a3.513,3.513,0,0,1-3.268,2.7" transform="translate(-1049.768 -513.894)" fill="#f0ebf1"/>
        <path id="패스_3496" data-name="패스 3496" d="M1301.916,620.4l.485-2.28a3.513,3.513,0,0,1,3.268-2.7h41.1a2.116,2.116,0,0,1,2.122,2.7l-.485,2.28Z" transform="translate(-1087.126 -513.894)" fill="#cfc6ce"/>
        <path id="패스_3497" data-name="패스 3497" d="M1323.53,625.012a1.415,1.415,0,0,1-1.316,1.086.852.852,0,0,1-.855-1.086,1.415,1.415,0,0,1,1.316-1.086.852.852,0,0,1,.855,1.086" transform="translate(-1103.341 -520.991)" fill="#f0ebf1"/>
        <path id="패스_3498" data-name="패스 3498" d="M1344.632,625.012a1.415,1.415,0,0,1-1.316,1.086.852.852,0,0,1-.855-1.086,1.415,1.415,0,0,1,1.316-1.086.852.852,0,0,1,.855,1.086" transform="translate(-1120.962 -520.991)" fill="#f0ebf1"/>
        <path id="패스_3499" data-name="패스 3499" d="M1365.734,625.012a1.415,1.415,0,0,1-1.316,1.086.852.852,0,0,1-.855-1.086,1.415,1.415,0,0,1,1.316-1.086.852.852,0,0,1,.855,1.086" transform="translate(-1138.582 -520.991)" fill="#f0ebf1"/>
        <path id="패스_3500" data-name="패스 3500" d="M1478.755,704.043h-21.912l5.991-28.188h15.359l5.272,5.9Z" transform="translate(-1216.494 -564.353)" fill="#fff"/>
        <path id="패스_3501" data-name="패스 3501" d="M1307.531,704.043h-25.986l5.991-28.188h25.986Z" transform="translate(-1070.116 -564.353)" fill="#fff"/>
        <path id="패스_3502" data-name="패스 3502" d="M1727.63,235.944a16.735,16.735,0,0,1-6.581-1.859l.78-1.473a15.078,15.078,0,0,0,5.93,1.671Zm3.537-.043-.165-1.658a21.038,21.038,0,0,0,6.074-1.57l.646,1.536a22.687,22.687,0,0,1-6.556,1.693m9.686-3.276-.853-1.432a24.991,24.991,0,0,0,4.976-3.9l1.185,1.172a26.658,26.658,0,0,1-5.309,4.158m-22.75-.585a14.71,14.71,0,0,1-3.921-5.643l1.55-.612a13.058,13.058,0,0,0,3.479,5.01Zm30.354-6.221-1.33-1.005a22.863,22.863,0,0,0,3.087-5.49l1.553.6a24.517,24.517,0,0,1-3.31,5.891m-35.2-2.872a17.634,17.634,0,0,1-.2-2.678,19.814,19.814,0,0,1,.443-4.108l.007-.032,1.625.372a18.166,18.166,0,0,0-.408,3.768,15.968,15.968,0,0,0,.183,2.424Zm39.538-6.439-1.641-.3c0-.024.01-.048.016-.071a18.1,18.1,0,0,0,.4-3.739,15.952,15.952,0,0,0-.186-2.445l1.647-.256a17.587,17.587,0,0,1,.206,2.7,19.8,19.8,0,0,1-.443,4.108m-36.727-3.142-1.554-.6a24.5,24.5,0,0,1,3.305-5.894l1.331,1a22.822,22.822,0,0,0-3.081,5.493m34.481-6.5a13.049,13.049,0,0,0-3.487-5l1.107-1.246a14.7,14.7,0,0,1,3.93,5.636Zm-29.252-1.474-1.185-1.172a26.668,26.668,0,0,1,5.3-4.162l.854,1.431a25.013,25.013,0,0,0-4.974,3.9m23.145-5.342a15.086,15.086,0,0,0-5.933-1.662l.127-1.662a16.745,16.745,0,0,1,6.584,1.85Zm-15.249-.042-.648-1.536a22.717,22.717,0,0,1,6.554-1.7l.167,1.658a21.053,21.053,0,0,0-6.073,1.576" transform="translate(-1430.433 -164.27)" fill="#030028"/>
        <path id="패스_3503" data-name="패스 3503" d="M1842.677,181.53a3.087,3.087,0,0,0-3.1-3.933,5.127,5.127,0,0,0-4.769,3.933,3.087,3.087,0,0,0,3.1,3.933,5.126,5.126,0,0,0,4.769-3.933" transform="translate(-1532.03 -148.297)" fill="#fff"/>
        <path id="패스_3504" data-name="패스 3504" d="M1830.687,179.661a4.547,4.547,0,0,1-3.622-1.651,4.752,4.752,0,0,1-.873-4.008,6.538,6.538,0,0,1,6.167-5.065,4.547,4.547,0,0,1,3.622,1.651,4.751,4.751,0,0,1,.872,4.008,6.537,6.537,0,0,1-6.167,5.065m1.672-7.866a3.691,3.691,0,0,0-3.371,2.8,1.893,1.893,0,0,0,.3,1.615,1.749,1.749,0,0,0,1.4.592,3.69,3.69,0,0,0,3.372-2.8h0a1.893,1.893,0,0,0-.3-1.615,1.75,1.75,0,0,0-1.4-.592" transform="translate(-1524.809 -141.067)" fill="#f45183"/>
        <line id="선_300" data-name="선 300" x1="14.9" transform="translate(310.647 33.233)" fill="#fff"/>
        <rect id="사각형_3796" data-name="사각형 3796" width="14.9" height="1.667" transform="translate(310.647 32.4)" fill="#f45183"/>
        <path id="패스_3505" data-name="패스 3505" d="M1963.615,189.752a1.812,1.812,0,0,0-1.818-2.309,3.009,3.009,0,0,0-2.8,2.309,1.812,1.812,0,0,0,1.818,2.309,3.009,3.009,0,0,0,2.8-2.309" transform="translate(-1635.76 -156.519)" fill="#5d47ff"/>
        <line id="선_301" data-name="선 301" x2="14.9" transform="translate(287.88 33.233)" fill="#fff"/>
        <rect id="사각형_3797" data-name="사각형 3797" width="14.9" height="1.667" transform="translate(287.88 32.4)" fill="#f45183"/>
        <path id="패스_3506" data-name="패스 3506" d="M1730.687,189.752a3.009,3.009,0,0,1,2.8-2.309,1.812,1.812,0,0,1,1.818,2.309,3.009,3.009,0,0,1-2.8,2.309,1.812,1.812,0,0,1-1.818-2.309" transform="translate(-1445.115 -156.519)" fill="#5d47ff"/>
        <path id="패스_3507" data-name="패스 3507" d="M1548.6,369.6h-34.945a1.844,1.844,0,0,1-1.85-2.349l7.934-37.326a3.062,3.062,0,0,1,2.849-2.349h34.945a1.844,1.844,0,0,1,1.85,2.349l-7.934,37.326a3.062,3.062,0,0,1-2.849,2.349" transform="translate(-1262.341 -273.536)" fill="#f0ebf1"/>
        <path id="패스_3508" data-name="패스 3508" d="M1557.6,331.918l.423-1.988a3.062,3.062,0,0,1,2.849-2.349h34.945a1.844,1.844,0,0,1,1.85,2.349l-.422,1.988Z" transform="translate(-1300.626 -273.537)" fill="#030028"/>
        <path id="패스_3509" data-name="패스 3509" d="M1576.439,335.935a1.233,1.233,0,0,1-1.147.946.743.743,0,0,1-.745-.946,1.233,1.233,0,0,1,1.147-.946.743.743,0,0,1,.745.946" transform="translate(-1314.761 -279.723)" fill="#beb2bd"/>
        <path id="패스_3510" data-name="패스 3510" d="M1594.833,335.935a1.234,1.234,0,0,1-1.148.946.743.743,0,0,1-.745-.946,1.234,1.234,0,0,1,1.147-.946.743.743,0,0,1,.746.946" transform="translate(-1330.12 -279.723)" fill="#beb2bd"/>
        <path id="패스_3511" data-name="패스 3511" d="M1613.227,335.935a1.233,1.233,0,0,1-1.147.946.743.743,0,0,1-.745-.946,1.234,1.234,0,0,1,1.147-.946.743.743,0,0,1,.745.946" transform="translate(-1345.479 -279.723)" fill="#beb2bd"/>
        <path id="패스_3512" data-name="패스 3512" d="M1589.089,382.931h-20.047l.47-2.209h20.047Z" transform="translate(-1310.183 -317.91)" fill="#5d47ff"/>
        <path id="패스_3513" data-name="패스 3513" d="M1556.217,518.091h-15.9l.47-2.209h15.9Z" transform="translate(-1286.192 -430.772)" fill="#8e7eff"/>
        <path id="패스_3514" data-name="패스 3514" d="M1571.257,491.059h-11.328l.47-2.209h11.328Z" transform="translate(-1302.573 -408.2)" fill="#f45183"/>
        <path id="패스_3515" data-name="패스 3515" d="M1588.495,409.962h-11.328l.469-2.21h11.328Z" transform="translate(-1316.966 -340.482)" fill="#f45183"/>
        <path id="패스_3516" data-name="패스 3516" d="M1602.8,436.995h-17.135l.47-2.209h17.135Z" transform="translate(-1324.059 -363.055)" fill="#8e7eff"/>
        <path id="패스_3517" data-name="패스 3517" d="M1599.943,464.027h-20.028l.469-2.209h20.028Z" transform="translate(-1319.262 -385.627)" fill="#5d47ff"/>
        <path id="패스_3518" data-name="패스 3518" d="M1545.459,545.123h-10.892l.47-2.21h10.892Z" transform="translate(-1281.395 -453.344)" fill="#5d47ff"/>
        <path id="패스_3519" data-name="패스 3519" d="M1293.493,246.121h-24.671a1.546,1.546,0,0,1-1.552-1.97l3.076-14.47a2.568,2.568,0,0,1,2.389-1.971h24.671a1.547,1.547,0,0,1,1.552,1.971l-3.076,14.47a2.568,2.568,0,0,1-2.389,1.97" transform="translate(-1058.16 -190.143)" fill="#cfc6ce"/>
        <path id="패스_3520" data-name="패스 3520" d="M1277.8,229.063h-25.3a1.586,1.586,0,0,1-1.591-2.021l3.154-14.84a2.634,2.634,0,0,1,2.451-2.021h25.3a1.586,1.586,0,0,1,1.591,2.021l-3.154,14.84a2.634,2.634,0,0,1-2.451,2.021" transform="translate(-1044.494 -175.506)" fill="#f0ebf1"/>
        <path id="패스_3521" data-name="패스 3521" d="M1305.046,151.4l-9.869-11.482a2.243,2.243,0,0,0-3.073,0l-14.75,11.482" transform="translate(-1066.617 -116.326)" fill="#f0ebf1"/>
        <path id="패스_3522" data-name="패스 3522" d="M1225.342,135.277c-6.463,0-12.049-2.5-15.726-7.043-3.79-4.68-5.1-10.922-3.684-17.575,2.473-11.634,12.88-21.642,24.746-23.8a26.033,26.033,0,0,1,4.641-.424v1.9a24.12,24.12,0,0,0-4.3.393c-11.138,2.023-20.9,11.41-23.224,22.319-1.292,6.08-.12,11.755,3.3,15.98,3.309,4.086,8.369,6.337,14.246,6.337,12.514,0,24.861-10.189,27.524-22.713,1.272-5.986.149-11.6-3.163-15.806l1.5-1.178c3.668,4.659,4.922,10.832,3.529,17.381-2.839,13.356-16.022,24.221-29.387,24.221" transform="translate(-1006.514 -72.178)" fill="#fbb9cc"/>
        <path id="패스_3523" data-name="패스 3523" d="M1409.009,70.18a8.989,8.989,0,0,1-8.362,6.9c-3.809,0-6.24-3.088-5.431-6.9a8.989,8.989,0,0,1,8.362-6.9c3.809,0,6.24,3.088,5.431,6.9" transform="translate(-1164.904 -52.844)" fill="#f45183"/>
        <path id="패스_3524" data-name="패스 3524" d="M1425.4,81.181a1.558,1.558,0,0,0-.891-.238,1.521,1.521,0,0,0-1.564,1.128,2.218,2.218,0,0,1,1.192-.3c1.2,0,1.959.807,1.614,2.431a3.169,3.169,0,0,1-3.066,2.6c-2.058,0-2.35-1.355-1.925-3.352.44-2.069,1.536-4.159,3.977-4.159a2.768,2.768,0,0,1,1.641.455Zm-2.906,2.524c-.158.745-.254,1.438.553,1.438a.968.968,0,0,0,.952-.879c.115-.538-.083-.921-.611-.921a1.5,1.5,0,0,0-.894.362" transform="translate(-1186.221 -66.207)" fill="#fff"/>
        <path id="패스_3525" data-name="패스 3525" d="M1274.051,215.325h28.591l-16.33,9.57Z" transform="translate(-1063.858 -179.801)" fill="#beb2bd"/>
        <path id="패스_3526" data-name="패스 3526" d="M1316.705,200.527l-3.245-4.122H1297.6l-1.3,6.1,8.589,6.592,11.392-6.592Z" transform="translate(-1082.44 -164.003)" fill="#fff"/>
        <path id="패스_3527" data-name="패스 3527" d="M1391.276,200.527h4.122l-4.854,1.043,1.608-5.165Z" transform="translate(-1161.133 -164.003)" fill="#f0ebf1"/>
        <path id="패스_3528" data-name="패스 3528" d="M1334.466,216.827c-1.126,0-1.658-.813-1.42-1.928a2.332,2.332,0,0,1,2.191-1.928,1.154,1.154,0,0,1,.856.3l.052-.245h1.194l-.474,2.231c-.075.353.015.529.328.529.4,0,.752-.5.929-1.331.372-1.752-.541-2.613-2.361-2.613a3.71,3.71,0,0,0-3.634,3c-.385,1.811.574,2.965,2.5,2.965a4.415,4.415,0,0,0,1.968-.509l.35.841a4.808,4.808,0,0,1-2.538.7c-2.6,0-3.993-1.615-3.493-3.964a5.2,5.2,0,0,1,5.084-4.072c2.506,0,3.728,1.478,3.281,3.582-.314,1.478-1.238,2.418-2.4,2.418a1.035,1.035,0,0,1-1.063-.617,1.791,1.791,0,0,1-1.347.626m.414-1.116a.966.966,0,0,0,.9-.822c.089-.421-.114-.8-.554-.8a.967.967,0,0,0-.895.8c-.1.47.119.822.55.822" transform="translate(-1111.256 -176.037)" fill="#5d47ff"/>
        <rect id="사각형_3798" data-name="사각형 3798" width="8.768" height="1.905" transform="matrix(0.409, -0.912, 0.912, 0.409, 240.75, 8.001)" fill="#5d47ff"/>
        <rect id="사각형_3799" data-name="사각형 3799" width="1.905" height="6.093" transform="matrix(0.999, -0.054, 0.054, 0.999, 235.953, 2.578)" fill="#5d47ff"/>
        <rect id="사각형_3800" data-name="사각형 3800" width="7.07" height="1.905" transform="translate(245.164 9.704) rotate(-39.313)" fill="#5d47ff"/>
        <rect id="사각형_3801" data-name="사각형 3801" width="3.51" height="1.905" transform="translate(246.886 13.423) rotate(-11.591)" fill="#5d47ff"/>
        <rect id="사각형_3802" data-name="사각형 3802" width="40.717" height="4.524" transform="translate(259.625 196.777)" fill="#030028"/>
        <path id="패스_3529" data-name="패스 3529" d="M1518.831,1230.794h10l-2.381-10.636h-5.238Z" transform="translate(-1268.255 -1018.857)" fill="#bbb"/>
        <path id="패스_3530" data-name="패스 3530" d="M1608.988,1220.159h-43.972l2.381,10.636h44.448Z" transform="translate(-1306.82 -1018.857)" fill="#030028"/>
        <path id="패스_3531" data-name="패스 3531" d="M1693.768,1372.569H1681.96l-14.424-87.943h11.807Z" transform="translate(-1392.427 -1072.689)" fill="#030028"/>
        <path id="패스_3532" data-name="패스 3532" d="M1667.537,1284.625l14.424,87.943h4.426l-14.424-87.943Z" transform="translate(-1392.427 -1072.688)" fill="#bbb"/>
        <path id="패스_3533" data-name="패스 3533" d="M1456.018,1372.569h-11.807l23.444-87.943h11.807Z" transform="translate(-1205.946 -1072.689)" fill="#030028"/>
        <path id="패스_3534" data-name="패스 3534" d="M1467.654,1284.625l-23.443,87.943h4.425l23.444-87.943Z" transform="translate(-1205.945 -1072.688)" fill="#bbb"/>
        <path id="패스_3535" data-name="패스 3535" d="M286.943,1372.569H275.136l-14.424-87.943h11.807Z" transform="translate(-217.7 -1072.689)" fill="#030028"/>
        <path id="패스_3536" data-name="패스 3536" d="M260.712,1284.625l14.424,87.943h4.425l-14.424-87.943Z" transform="translate(-217.7 -1072.688)" fill="#bbb"/>
        <path id="패스_3537" data-name="패스 3537" d="M49.194,1372.569H37.387l23.444-87.943H72.637Z" transform="translate(-31.219 -1072.689)" fill="#030028"/>
        <path id="패스_3538" data-name="패스 3538" d="M60.83,1284.625l-23.444,87.943h4.426l23.444-87.943Z" transform="translate(-31.218 -1072.688)" fill="#bbb"/>
        <rect id="사각형_3803" data-name="사각형 3803" width="12.848" height="5.466" transform="translate(195.45 184.882)" fill="#030028"/>
        <path id="패스_3539" data-name="패스 3539" d="M723.109,955.575H659.862a11.87,11.87,0,0,1-8.031-3.13L630.987,931.1l18.7-14.686,14.557,15.933a21.168,21.168,0,0,0,10.625,5.73l34.423,8.739a4.1,4.1,0,0,0,2.631-.21l11.163-4.822a2.025,2.025,0,0,1,1.246-.117l9.988,2.242a2.7,2.7,0,0,1,1.638,1.111l4.987,7.289a2.072,2.072,0,0,1,.235,1.884l-.194.529a1.3,1.3,0,0,1-1.216.85h-.222a2.145,2.145,0,0,1-1.87-1.093l-.814-1.447-.542,1.735a1.146,1.146,0,0,1-1.094.8h-.44a1.187,1.187,0,0,1-1.1-1.647,2.066,2.066,0,0,0,.156-.575c.208-1.984-3.046-3.532-4.475-2.262s-3.413,4.484-6.27,4.484" transform="translate(-526.887 -765.227)" fill="#ffe3cc"/>
        <path id="패스_3540" data-name="패스 3540" d="M639.491,939.809l10.218-23.373-.018-.02-18.7,14.685Z" transform="translate(-526.887 -765.227)" fill="#fbd7b9"/>
        <path id="패스_3541" data-name="패스 3541" d="M572.769,428.624l2.681-2.1c.089-.069.186-.157.181-.269a.357.357,0,0,0-.064-.163c-.207-.344-.55-.929-.757-1.273s-.382-.517-.795-.475" transform="translate(-478.274 -354.332)" fill="#222"/>
        <path id="패스_3542" data-name="패스 3542" d="M573.853,476.436s2.461-1.27,3.175-1.508.372-1.508-4.259-9.128" transform="translate(-478.274 -388.953)" fill="#fbd7b9"/>
        <path id="패스_3543" data-name="패스 3543" d="M327.22,340.445l-1.048,10.964-26.253-5.129s7.007-8.373,8.586-18.288c-7.036-7.361-15.647-24.526-1.753-36.544,9.242-7.994,31.174-5.708,36.131,6.159l3.605,12.318-1.5,3.605s1.352,11.718,1.5,15.473-4.957,14.421-6.91,14.271-12.357-2.83-12.357-2.83" transform="translate(-249.952 -239.437)" fill="#ffe3cc"/>
        <path id="패스_3544" data-name="패스 3544" d="M335.4,427.5c-.776.5-1.152.706-2.014.164a3.993,3.993,0,0,1-1.368-1.639,7.382,7.382,0,0,1-.458-1.253,18.108,18.108,0,0,1-.685-4.48,11.985,11.985,0,0,1,.947-6.106l2.022-1.646c-4.4-.682-8.825.706-13.06,2.076a16.282,16.282,0,0,0-2.4.919,12.567,12.567,0,0,0-1.435.88,25.493,25.493,0,0,0-3.928,3.338c-.938.98-1.687,2.349-2.875,3.043a37.222,37.222,0,0,1-4.368,2.068,35.868,35.868,0,0,0,5.677,8.019c-1.58,9.915-8.586,18.288-8.586,18.288l9.665,1.888a48.3,48.3,0,0,0,5.25-17.713,10.427,10.427,0,0,0,5.665-1.543,18.882,18.882,0,0,0,4.491-3.87,3.5,3.5,0,0,1,1.564-1.225,4.535,4.535,0,0,1,2.5.485,3.251,3.251,0,0,0,3.137-.477,2.4,2.4,0,0,0,.847-2.039c.055.353-.285.629-.585.822" transform="translate(-252.898 -344.333)" fill="#fbd7b9"/>
        <path id="패스_3545" data-name="패스 3545" d="M474.816,582.542a50.781,50.781,0,0,1-8.9-2.295.581.581,0,0,1-.477-.708q.134-3.645.267-7.289a27.556,27.556,0,0,0,7.634,5.476" transform="translate(-388.646 -477.841)" fill="#fbd7b9"/>
        <path id="패스_3546" data-name="패스 3546" d="M390.615,385.145c-1.277,4.164-4.485,7.245-4.426,11.6.025,1.844,1.9,4.892,3.336,6.054a5.628,5.628,0,0,0,2.967,1.1,6.959,6.959,0,0,0,4.65-1.143c1.575-1.1,1.943-2.755,2.223-4.571a11.672,11.672,0,0,1,1.735-4.222,8.915,8.915,0,0,0,1.243-5.464,1.344,1.344,0,0,0-.237-.739,1.563,1.563,0,0,0-.779-.407,8.41,8.41,0,0,1-3.76-2.325c-1.451-1.616-1.5-3.541-1.926-5.548a25.2,25.2,0,0,1-.864-6.154c.086-3.343,1.488-6.493,2.865-9.54.709-1.569,1.641-3.9.848-5.584-5.335-.515-10.861,2.313-15.817,4.354-3.607,1.485-7.321,3.042-10.04,5.838a28.7,28.7,0,0,0-4.727,7.46,20.817,20.817,0,0,0-1.9,4.772,7.006,7.006,0,0,0,.584,5c2.452,4.186,7.528,2.127,10.446-.193a16.24,16.24,0,0,0,6.024-10.628,16.239,16.239,0,0,1,.517-3.365,3.569,3.569,0,0,1,4.457-2.389c2.048.7,2.416,2.97,2.354,4.868a5.574,5.574,0,0,0,.432,1.871,15.522,15.522,0,0,1-.2,9.355" transform="translate(-305.45 -299.056)" fill="#222"/>
        <path id="패스_3547" data-name="패스 3547" d="M332.818,258.971a5.562,5.562,0,0,0,3.99-1c3.025-1.9,2.96-6.868,1.418-9.677a7.078,7.078,0,0,0-7.121-3.345,25.928,25.928,0,0,0-1.519-2.922c-3.795-5.283-13.26-4.405-17.186.167-.148.172-1.137,1.805-1.186,1.8-7.2-.569-16.841,1.746-20.8,8.381-4.759,7.977-3.014,19.581.874,27.5a18.288,18.288,0,0,0,5.224,6.9c2.348,1.726,5.588,2.473,8.238,1.261,3.308-1.513,4.714-5.417,5.421-8.986s1.16-7.447,3.6-10.143c2.77-3.056,7.154-3.761,10.966-5.027a20.075,20.075,0,0,0,5.679-2.921c2.031-1.47-.125-2.625,2.4-2" transform="translate(-240.098 -199.076)" fill="#222"/>
        <path id="패스_3548" data-name="패스 3548" d="M485.061,438.925c-1.179-5.508.3-6.735.987-7.006a1.807,1.807,0,0,1,2.173.961l.042.085a3.229,3.229,0,0,1-.027,2.214l-1.108-.437a2.043,2.043,0,0,0,.041-1.3c-.21-.324-.487-.5-.685-.417-.377.149-1.159,1.453-.26,5.65Z" transform="translate(-404.667 -360.575)" fill="#fbd7b9"/>
        <path id="패스_3549" data-name="패스 3549" d="M807.086,1549.229l14.446,44.289H800.1l-23.573-44.289" transform="translate(-648.416 -1293.637)" fill="#222"/>
        <path id="패스_3550" data-name="패스 3550" d="M105.823,1333.813a8.384,8.384,0,0,1-3.857-2.284,5.025,5.025,0,0,1-.707-1.184,8.266,8.266,0,0,1-1.478-1.373c-2.624-3.052-4.707-8.89-5.865-16.438-.993-6.479-1.072-12.78-.636-15.655.054-.358.107-.734.161-1.121.255-1.814.775-5.5,1.844-6.232a4.121,4.121,0,0,1,.289-.691c.608-1.12,1.767-1.943,2.415-3-2.136.569-4.1,1.14-5.836,1.7-3.413,1.111-4.059,3.493-4.606,7.386-.051.366-.1.72-.152,1.058-.488,3.219-.5,10.052.638,17.449.937,6.109,2.952,14.437,7.235,19.417,2.485,2.89,7.968,2.2,11.311,2.2l1.04-.009a1.96,1.96,0,0,0-.146-.241,3.265,3.265,0,0,0-1.65-.986" transform="translate(-72.716 -1073.703)" fill="#bbb"/>
        <path id="패스_3551" data-name="패스 3551" d="M207.71,1228.139c-2.93-4.693-7.736-2.977-9.189-3.132-4.838-.517-39.28,4.626-59.01,9.884-.648,1.053-1.807,1.875-2.415,3a4.1,4.1,0,0,0-.289.691.786.786,0,0,1,.145-.081c15.945-6.513,52.651-10.188,59.865-10.188.4,0,.7.011.914.033a6.743,6.743,0,0,1,4.93,2.949c1.358,2.175,1.3,5.46-.171,9.5-2.117,5.823-4.559,12.973-6.714,19.282-2.074,6.071-4.032,11.805-4.614,13.112-2.2,4.931-3.2,7.181-17.569,7.181H145.7a4.941,4.941,0,0,1-2.917-.973,5.024,5.024,0,0,0,.707,1.184,8.386,8.386,0,0,0,3.857,2.284,3.265,3.265,0,0,1,1.65.986,1.963,1.963,0,0,1,.146.241l24.557-.21c8.021,0,13.552-.375,16.891-2.049,3.911-1.96,4.605-3.069,6.009-6.222.659-1.479,2.18-5.909,4.81-13.61,2.146-6.283,4.578-13.4,6.676-19.172,2.676-7.36,1.274-12.051-.374-14.69" transform="translate(-114.237 -1022.754)" fill="#030028"/>
        <path id="패스_3552" data-name="패스 3552" d="M163.885,1282.137H135.99a9.553,9.553,0,0,1-7.374-3.713c-3.97-4.617-5.872-12.557-6.769-18.4-1.1-7.187-1.1-13.766-.638-16.839.052-.345.1-.707.156-1.081.506-3.6,1.136-8.071,4.393-9.4,17.744-7.248,58.387-10.878,62.68-10.424a10.756,10.756,0,0,1,7.848,4.775c2.05,3.283,2.113,7.632.188,12.926-2.1,5.785-4.538,12.915-6.687,19.2-2.286,6.691-4.091,11.977-4.745,13.445-3.011,6.758-5.767,9.511-21.158,9.511m23.417-58c-7.351,0-44.649,3.721-60.822,10.327-2.244.917-2.789,4.791-3.227,7.9-.053.38-.105.749-.159,1.1-.958,6.32.3,25.96,6.968,33.715a7.736,7.736,0,0,0,5.929,3.05h27.894c14.4,0,16.652-2.173,19.418-8.381.619-1.39,2.5-6.9,4.682-13.286,2.152-6.3,4.59-13.437,6.7-19.24,1.714-4.715,1.709-8.505-.014-11.266a8.81,8.81,0,0,0-6.434-3.89c-.215-.023-.53-.034-.935-.034" transform="translate(-100.967 -1020.594)" fill="#cfc6ce"/>
        <path id="패스_3553" data-name="패스 3553" d="M489.99,1302.607s70.285,12.114,78.1,13.543,17.84,10.953,9.494,24.764-31.524,46.67-31.524,46.67H521.213l22.935-41.193h-101.9l21.534-34.05Z" transform="translate(-369.284 -1087.704)" fill="#222"/>
        <rect id="사각형_3804" data-name="사각형 3804" width="65.831" height="4.027" transform="translate(89.646 257.392)" fill="#030028"/>
        <path id="패스_3554" data-name="패스 3554" d="M286.833,1579.537l5.834,5.834h70.6l5.8-5.8" transform="translate(-239.511 -1318.946)" fill="#030028"/>
        <path id="패스_3555" data-name="패스 3555" d="M154.448,638.381s12.374-.483,19.874,2.731l23.188,9.868a20.438,20.438,0,0,1,6.29,4.2L229.121,683.7l-20.769,18.1-6.144-5.248s-1.274,33.533,21.825,51.393c-23.348,12.114-39.572,40.688-39.572,40.688l-50.893-12.62s5.953-48.1,1.429-55.957-18.566-47.652-6.429-62.148c11.843-14.144,20.756-19.526,25.881-19.526" transform="translate(-103.327 -533.04)" fill="#ef6408"/>
        <path id="패스_3556" data-name="패스 3556" d="M118.191,995.214c-9.708-4.683-21.92-15.038-15.522-45.124,1.949-9.166-.67-14.642-4-25.834s-13.9-44.49-13.9-44.49l-60.954,4.487s9.405,28.812,12.739,40,5.953,16.668,4,25.834c-6.4,30.086,5.814,40.441,15.522,45.124Z" transform="translate(-19.885 -734.623)" fill="#ddd"/>
        <path id="패스_3557" data-name="패스 3557" d="M7.858,863.266a3.929,3.929,0,1,1-3.929-3.929,3.929,3.929,0,0,1,3.929,3.929" transform="translate(0 -717.564)" fill="#f0ebf1"/>
        <rect id="사각형_3805" data-name="사각형 3805" width="57.065" height="7.858" transform="translate(3.929 141.773)" fill="#f0ebf1"/>
        <path id="패스_3558" data-name="패스 3558" d="M353.751,863.266a3.929,3.929,0,1,1-3.929-3.929,3.929,3.929,0,0,1,3.929,3.929" transform="translate(-288.828 -717.564)" fill="#cfc6ce"/>
        <rect id="사각형_3806" data-name="사각형 3806" width="24.247" height="1.667" transform="translate(32.819 214.634)" fill="#cfc6ce"/>
        <path id="패스_3559" data-name="패스 3559" d="M564.067,276.172a5.473,5.473,0,0,1-1.525-.212l.463-1.6c2.034.587,4.521-.7,5.925-2.274a6.729,6.729,0,0,0,1.283-5.895,8.55,8.55,0,0,0-4.3-5.993l.711-1.507a10.12,10.12,0,0,1,5.217,7.167,8.368,8.368,0,0,1-1.671,7.336,8.748,8.748,0,0,1-6.107,2.978" transform="translate(-469.734 -216.012)" fill="#222"/>
        <path id="패스_3560" data-name="패스 3560" d="M307.915,261.735l-.991-1.34c9.833-7.266,20.093-3.645,23-2.362l-.672,1.526c-2.7-1.192-12.23-4.555-21.34,2.177" transform="translate(-256.288 -213.758)" fill="#222"/>
        <path id="패스_3561" data-name="패스 3561" d="M489.4,1333.813a8.383,8.383,0,0,1-3.857-2.284,5.031,5.031,0,0,1-.707-1.184,8.268,8.268,0,0,1-1.478-1.373c-2.624-3.052-4.707-8.89-5.865-16.438-.993-6.479-1.072-12.78-.636-15.655.054-.358.107-.734.161-1.121.255-1.814.775-5.5,1.844-6.232a4.125,4.125,0,0,1,.289-.691c.608-1.12,1.767-1.943,2.415-3-2.136.569-4.1,1.14-5.836,1.7-3.413,1.111-4.059,3.493-4.606,7.386-.051.366-.1.72-.153,1.058-.488,3.219-.5,10.052.638,17.449.937,6.109,2.952,14.437,7.235,19.417,2.485,2.89,7.968,2.2,11.311,2.2l1.04-.009a1.946,1.946,0,0,0-.146-.241,3.266,3.266,0,0,0-1.65-.986" transform="translate(-393.012 -1073.703)" fill="#bbb"/>
        <path id="패스_3562" data-name="패스 3562" d="M591.289,1228.139c-2.93-4.693-7.736-2.977-9.189-3.132-4.838-.517-39.28,4.626-59.01,9.884-.648,1.053-1.807,1.875-2.415,3a4.1,4.1,0,0,0-.289.691.79.79,0,0,1,.145-.081c15.945-6.513,52.651-10.188,59.865-10.188.4,0,.7.011.914.033a6.742,6.742,0,0,1,4.93,2.949c1.358,2.175,1.3,5.46-.171,9.5-2.117,5.823-4.559,12.973-6.714,19.282-2.073,6.071-4.032,11.805-4.614,13.112-2.2,4.931-3.2,7.181-17.569,7.181H529.276a4.942,4.942,0,0,1-2.917-.973,5.023,5.023,0,0,0,.707,1.184,8.386,8.386,0,0,0,3.857,2.284,3.264,3.264,0,0,1,1.65.986,1.948,1.948,0,0,1,.146.241l24.558-.21c8.021,0,13.552-.375,16.891-2.049,3.911-1.96,4.605-3.069,6.01-6.222.659-1.479,2.179-5.909,4.81-13.61,2.146-6.283,4.578-13.4,6.676-19.172,2.676-7.36,1.274-12.051-.374-14.69" transform="translate(-434.533 -1022.754)" fill="#030028"/>
        <path id="패스_3563" data-name="패스 3563" d="M547.464,1282.137H519.57a9.553,9.553,0,0,1-7.374-3.712c-3.97-4.617-5.872-12.557-6.769-18.4-1.1-7.187-1.1-13.766-.638-16.839.052-.344.1-.706.156-1.079.506-3.6,1.135-8.073,4.393-9.4,17.744-7.248,58.385-10.878,62.68-10.424a10.756,10.756,0,0,1,7.848,4.775c2.05,3.283,2.113,7.632.188,12.926-2.1,5.785-4.538,12.915-6.687,19.2-2.286,6.691-4.091,11.977-4.745,13.445-3.011,6.758-5.767,9.511-21.158,9.511m23.417-58c-7.351,0-44.649,3.721-60.822,10.327-2.244.917-2.789,4.792-3.227,7.905-.053.38-.105.748-.158,1.1-.958,6.32.3,25.96,6.967,33.715a7.736,7.736,0,0,0,5.929,3.05h27.894c14.4,0,16.652-2.173,19.418-8.381.619-1.39,2.5-6.9,4.682-13.286,2.151-6.3,4.59-13.437,6.7-19.24,1.714-4.715,1.709-8.505-.014-11.266a8.81,8.81,0,0,0-6.434-3.89c-.215-.023-.53-.034-.935-.034" transform="translate(-421.264 -1020.594)" fill="#cfc6ce"/>
        <path id="패스_3564" data-name="패스 3564" d="M1560.734,1032.4l3.1-21.149a1.586,1.586,0,0,0-1.569-1.816H1543.3a1.585,1.585,0,0,0-1.568,1.816l3.1,21.149a.991.991,0,0,0,.98.847h13.935a.991.991,0,0,0,.98-.847" transform="translate(-1287.367 -842.902)" fill="#2030e0"/>
        <path id="패스_3565" data-name="패스 3565" d="M1650.1,1034.334v-1.9c2.612,0,6.562-4.4,6.874-8.74a2.361,2.361,0,0,0-1.119-2.348,4.43,4.43,0,0,0-4.233-.018l-.968-1.641a6.308,6.308,0,0,1,6.2.039,4.243,4.243,0,0,1,2.016,4.1c-.36,5.009-4.952,10.508-8.773,10.508" transform="translate(-1377.87 -850.791)" fill="#2030e0"/>
        <path id="패스_3566" data-name="패스 3566" d="M1643.724,1034.739v-1.9c1.167,0,2.679-1.038,3.947-2.709a11.507,11.507,0,0,0,2.37-6.188,2.549,2.549,0,0,0-1.123-2.548,3.67,3.67,0,0,0-3.706.446l-1.071-1.575a5.519,5.519,0,0,1,5.71-.532,4.38,4.38,0,0,1,2.094,4.3c-.256,5.2-4.481,10.708-8.22,10.708" transform="translate(-1372.543 -851.019)" fill="#0461fc"/>
        <rect id="사각형_3807" data-name="사각형 3807" width="9.705" height="33.455" transform="translate(83.096 266.425)" fill="#030028"/>
        <path id="패스_3567" data-name="패스 3567" d="M487.27,1601.635H464.707a11.282,11.282,0,1,0,22.563,0" transform="translate(-388.04 -1337.398)" fill="#030028"/>
        <rect id="사각형_3808" data-name="사각형 3808" width="1.667" height="11.599" transform="matrix(0.738, -0.675, 0.675, 0.738, 90.44, 155.511)" fill="#c4743b"/>
        <path id="패스_3568" data-name="패스 3568" d="M1389.723,965.589h-20.139l4.59-21.594h20.14Z" transform="translate(-1143.63 -788.256)" fill="#ef6408"/>
        <rect id="사각형_3809" data-name="사각형 3809" width="8.572" height="1.667" transform="translate(232.216 158.798)" fill="#fff"/>
        <rect id="사각형_3810" data-name="사각형 3810" width="12.415" height="1.667" transform="translate(231.406 162.608)" fill="#fff"/>
        <rect id="사각형_3811" data-name="사각형 3811" width="10.08" height="1.667" transform="translate(229.685 170.704)" fill="#fff"/>
        <rect id="사각형_3812" data-name="사각형 3812" width="3.492" height="1.667" transform="translate(230.596 166.418)" fill="#fff"/>
        <rect id="사각형_3813" data-name="사각형 3813" width="10.001" height="1.667" transform="translate(235.676 166.418)" fill="#fff"/>
        <rect id="사각형_3814" data-name="사각형 3814" width="3.572" height="1.667" transform="translate(242.846 158.798)" fill="#fff"/>
        <path id="패스_3569" data-name="패스 3569" d="M789.931,317.387h-48.61a1.6,1.6,0,0,1-1.606-2.04l6.888-32.4a2.658,2.658,0,0,1,2.473-2.04h48.61a1.6,1.6,0,0,1,1.606,2.04l-6.888,32.4a2.659,2.659,0,0,1-2.473,2.04" transform="translate(-617.639 -234.56)" fill="#f0ebf1"/>
        <path id="패스_3570" data-name="패스 3570" d="M816.535,323.6H770.561l4.887-22.992h45.974Z" transform="translate(-643.434 -251.013)" fill="#fff"/>
        <path id="패스_3571" data-name="패스 3571" d="M824.042,332.352a3.977,3.977,0,0,1-3.986-5.062,6.606,6.606,0,0,1,6.138-5.061,3.977,3.977,0,0,1,3.986,5.061,6.606,6.606,0,0,1-6.138,5.062m1.828-8.6a4.618,4.618,0,0,0-4.29,3.538,2.78,2.78,0,0,0,2.786,3.538,4.618,4.618,0,0,0,4.29-3.538,2.78,2.78,0,0,0-2.786-3.538" transform="translate(-684.669 -269.068)" fill="#cfc6ce"/>
        <path id="패스_3572" data-name="패스 3572" d="M844.091,330.143l.555-2.612a3.907,3.907,0,0,0,3.631-2.994,2.352,2.352,0,0,0-2.358-2.994l.555-2.612a4.4,4.4,0,0,1,4.414,5.606,7.316,7.316,0,0,1-6.8,5.606" transform="translate(-704.833 -266.314)" fill="#ffc842"/>
        <path id="패스_3573" data-name="패스 3573" d="M906.894,332.352a3.919,3.919,0,0,1-3.787-2.379,4.534,4.534,0,0,1-.2-2.683,6.606,6.606,0,0,1,6.138-5.061,3.977,3.977,0,0,1,3.986,5.061,6.606,6.606,0,0,1-6.138,5.062m1.828-8.6a4.618,4.618,0,0,0-4.29,3.538,3.168,3.168,0,0,0,.138,1.875,2.74,2.74,0,0,0,2.648,1.664,4.618,4.618,0,0,0,4.29-3.538,2.78,2.78,0,0,0-2.786-3.538" transform="translate(-753.851 -269.068)" fill="#cfc6ce"/>
        <path id="패스_3574" data-name="패스 3574" d="M899.768,327.508a5.02,5.02,0,0,1-.22-2.972,7.316,7.316,0,0,1,6.8-5.606l-.555,2.612a3.907,3.907,0,0,0-3.631,2.994,2.68,2.68,0,0,0,.116,1.586Z" transform="translate(-751.036 -266.314)" fill="#f45183"/>
        <path id="패스_3575" data-name="패스 3575" d="M989.742,332.352a3.977,3.977,0,0,1-3.986-5.062,6.606,6.606,0,0,1,6.138-5.061,3.977,3.977,0,0,1,3.986,5.061,6.606,6.606,0,0,1-6.138,5.062m1.828-8.6a4.618,4.618,0,0,0-4.29,3.538,2.78,2.78,0,0,0,2.786,3.538,4.618,4.618,0,0,0,4.291-3.538,2.78,2.78,0,0,0-2.786-3.538" transform="translate(-823.032 -269.068)" fill="#cfc6ce"/>
        <path id="패스_3576" data-name="패스 3576" d="M1023.421,328.446l-1.484-1.821a3.808,3.808,0,0,0,1.292-2.088,2.352,2.352,0,0,0-2.358-2.994l.555-2.612a4.4,4.4,0,0,1,4.414,5.606,7.129,7.129,0,0,1-2.419,3.91" transform="translate(-852.448 -266.314)" fill="#8e7eff"/>
        <path id="패스_3577" data-name="패스 3577" d="M778.285,458.067a2.647,2.647,0,0,1-2.463,2.031,1.594,1.594,0,0,1-1.6-2.031,2.647,2.647,0,0,1,2.463-2.031,1.594,1.594,0,0,1,1.6,2.031" transform="translate(-646.454 -380.8)" fill="#ffc842"/>
        <path id="패스_3578" data-name="패스 3578" d="M807.817,464.962h-4.574l.354-1.667h4.574Z" transform="translate(-670.724 -386.861)" fill="#cfc6ce"/>
        <path id="패스_3579" data-name="패스 3579" d="M862.849,458.067a2.647,2.647,0,0,1-2.463,2.031,1.594,1.594,0,0,1-1.6-2.031,2.647,2.647,0,0,1,2.462-2.031,1.594,1.594,0,0,1,1.6,2.031" transform="translate(-717.066 -380.8)" fill="#f45183"/>
        <path id="패스_3580" data-name="패스 3580" d="M892.381,464.962h-4.574l.354-1.667h4.574Z" transform="translate(-741.337 -386.861)" fill="#cfc6ce"/>
        <path id="패스_3581" data-name="패스 3581" d="M943.7,458.067a2.647,2.647,0,0,1-2.463,2.031,1.594,1.594,0,0,1-1.6-2.031,2.647,2.647,0,0,1,2.462-2.031,1.594,1.594,0,0,1,1.6,2.031" transform="translate(-784.58 -380.8)" fill="#8e7eff"/>
        <path id="패스_3582" data-name="패스 3582" d="M973.235,464.962h-4.574l.354-1.667h4.574Z" transform="translate(-808.851 -386.861)" fill="#cfc6ce"/>
        <path id="패스_3583" data-name="패스 3583" d="M822.243,398.443H788.885l.324-1.523h33.358Z" transform="translate(-658.735 -331.436)" fill="#cfc6ce"/>
        <path id="패스_3584" data-name="패스 3584" d="M809.169,418.987H784.519l.324-1.523h24.651Z" transform="translate(-655.089 -348.591)" fill="#cfc6ce"/>
        <path id="패스_3585" data-name="패스 3585" d="M1010.949,398.443h-6.414l.324-1.523h6.414Z" transform="translate(-838.807 -331.436)" fill="#cfc6ce"/>
        <path id="패스_3586" data-name="패스 3586" d="M1993.029,416.323a16.984,16.984,0,0,0,4.784-8.471c1.587-7.468-3.18-13.522-10.648-13.522a15.127,15.127,0,0,0-5.234.967c.6-8.3-5.164-14.689-13.783-14.689-9.428,0-18.7,7.643-20.7,17.072a17.556,17.556,0,0,0-.351,2.537,9.36,9.36,0,0,0-3.756-.752c-5.844,0-11.589,4.738-12.831,10.582a9.239,9.239,0,0,0,.729,6.276Z" transform="translate(-1611.814 -317.816)" fill="#ef6408"/>
        <path id="패스_3587" data-name="패스 3587" d="M2022.12,939l-1.588,2.991h-3.276l7.444-13.334h3.429l1.776,13.334h-3.277l-.317-2.991Zm3.561-6.9-2.156,4.229h2.514Z" transform="translate(-1684.45 -775.445)"/>
        <path id="패스_3588" data-name="패스 3588" d="M2105.09,951.187a4.5,4.5,0,0,1,1.848.362l.077-.362c.129-.609-.265-1.086-1.294-1.086a6.673,6.673,0,0,0-2.648.629l-.727-2.133a8.641,8.641,0,0,1,4.34-1.238c3.448,0,3.948,1.772,3.462,4.058l-1.316,6.191h-2.839l-.054-.552a3.669,3.669,0,0,1-2.437.8c-1.962,0-3.464-1.181-3-3.353a4.387,4.387,0,0,1,4.591-3.315m-.251,4.229a1.451,1.451,0,0,0,1.552-1.029c.146-.686-.364-1.067-1.125-1.067a1.5,1.5,0,0,0-1.56,1.067c-.142.667.391,1.029,1.134,1.029" transform="translate(-1753.89 -791.063)"/>
        <path id="패스_3589" data-name="패스 3589" d="M661.779,153.194l8.846-3.619-.579,2.724-5.553,2.019,4.695,2.019-.583,2.743-7.307-3.62Z" transform="translate(-552.197 -124.898)"/>
        <path id="패스_3590" data-name="패스 3590" d="M710.737,144.21h-2.762l9.17-16.344h2.762Z" transform="translate(-591.173 -106.771)"/>
        <path id="패스_3591" data-name="패스 3591" d="M778.862,155.461l-8.847,3.619.583-2.743,5.553-2.019-4.695-2.019.579-2.724,7.308,3.619Z" transform="translate(-642.979 -124.898)"/>
        <path id="패스_3592" data-name="패스 3592" d="M1760.219,847.714l-.563,2.648c-.206.971.1,1.6,1.336,1.6l-.583,2.743c-3.315,0-4.471-1.638-3.884-4.4l.421-1.981c.287-1.352-.521-1.581-1.036-1.581l.64-3.01a1.72,1.72,0,0,0,1.707-1.581l.421-1.981c.587-2.762,2.44-4.4,5.755-4.4l-.583,2.743a1.834,1.834,0,0,0-2.017,1.6l-.563,2.648a3.229,3.229,0,0,1-2.165,2.476,1.925,1.925,0,0,1,1.112,2.477" transform="translate(-1466.221 -697.885)" fill="#f88bac"/>
        <path id="패스_3593" data-name="패스 3593" d="M1846.972,842.762l.563-2.648c.207-.972-.1-1.6-1.336-1.6l.583-2.743c3.314,0,4.471,1.638,3.884,4.4l-.421,1.981c-.287,1.352.521,1.581,1.036,1.581l-.64,3.01a1.72,1.72,0,0,0-1.708,1.581l-.421,1.981c-.587,2.762-2.44,4.4-5.755,4.4l.583-2.743a1.834,1.834,0,0,0,2.016-1.6l.563-2.648a3.229,3.229,0,0,1,2.165-2.477,1.925,1.925,0,0,1-1.112-2.476" transform="translate(-1538.739 -697.886)" fill="#f88bac"/>
        <path id="패스_3594" data-name="패스 3594" d="M753.329,702.72H743.165c-3.861,0-6.325-3.13-5.5-6.99l2.161-10.164a9.111,9.111,0,0,1,8.476-6.99h10.164c3.861,0,6.325,3.13,5.5,6.99l-2.16,10.164a9.111,9.111,0,0,1-8.476,6.99" transform="translate(-615.83 -566.624)" fill="#ef6408"/>
        <path id="패스_3595" data-name="패스 3595" d="M785.415,713.989a7.657,7.657,0,0,0,.494-1.512,6.672,6.672,0,0,0,.149-1.512l-1.884-.182a4.921,4.921,0,0,0-.225-1.113l1.547-1.488a4.983,4.983,0,0,0-.694-1.191,4.89,4.89,0,0,0-.99-.947l-1.75,1.231a4.666,4.666,0,0,0-1.015-.461l.227-1.923a6.231,6.231,0,0,0-1.475-.173,7.191,7.191,0,0,0-1.549.173l-.591,1.923a7.315,7.315,0,0,0-1.211.461l-1.226-1.231a9.058,9.058,0,0,0-1.393.947,9.155,9.155,0,0,0-1.2,1.191l.915,1.488a7.619,7.619,0,0,0-.7,1.113l-1.961.182a7.649,7.649,0,0,0-.494,1.512,6.656,6.656,0,0,0-.149,1.512l1.884.182a4.926,4.926,0,0,0,.225,1.113l-1.547,1.488a4.988,4.988,0,0,0,.694,1.191,4.89,4.89,0,0,0,.99.947l1.75-1.231a4.652,4.652,0,0,0,1.015.461l-.227,1.923a6.241,6.241,0,0,0,1.476.172,7.2,7.2,0,0,0,1.549-.172l.59-1.923a7.282,7.282,0,0,0,1.211-.461l1.226,1.231a9.064,9.064,0,0,0,1.393-.947,9.186,9.186,0,0,0,1.2-1.191l-.915-1.488a7.634,7.634,0,0,0,.7-1.113Zm-7.928,1.608a2.449,2.449,0,0,1-2.457-3.12,4.067,4.067,0,0,1,3.783-3.12,2.449,2.449,0,0,1,2.457,3.12,4.066,4.066,0,0,1-3.783,3.12" transform="translate(-643.166 -588.453)" fill="#fff"/>
        <path id="패스_3596" data-name="패스 3596" d="M956.263,60.995c-1.816,8.545-10.216,15.473-18.762,15.473s-14-6.927-12.184-15.473,10.216-15.473,18.762-15.473,14,6.927,12.184,15.473" transform="translate(-772.367 -38.012)" fill="#ef6408"/>
        <path id="패스_3597" data-name="패스 3597" d="M969.76,114.744l-5.416-6.878,3.267-2.694,3.294,4.184,10.572-8.719,2.121,2.694Z" transform="translate(-805.247 -84.034)" fill="#fff"/>
        <path id="패스_3598" data-name="패스 3598" d="M1679.429,558.479a1.667,1.667,0,1,1,1.667,1.667,1.666,1.666,0,0,1-1.667-1.667m-8.334,0a1.667,1.667,0,1,1,1.667,1.667,1.666,1.666,0,0,1-1.667-1.667m-8.334,0a1.667,1.667,0,1,1,1.667,1.667,1.666,1.666,0,0,1-1.667-1.667m-8.334,0a1.667,1.667,0,1,1,1.667,1.667,1.666,1.666,0,0,1-1.667-1.667m-8.334,0a1.667,1.667,0,1,1,1.667,1.667,1.666,1.666,0,0,1-1.667-1.667m-8.334,0a1.667,1.667,0,1,1,1.667,1.667,1.666,1.666,0,0,1-1.667-1.667m-8.334,0a1.667,1.667,0,1,1,1.667,1.667,1.666,1.666,0,0,1-1.667-1.667m-8.334,0a1.667,1.667,0,1,1,1.667,1.667,1.666,1.666,0,0,1-1.667-1.667m-8.334,0a1.667,1.667,0,1,1,1.667,1.667,1.665,1.665,0,0,1-1.667-1.667m-8.334,0a1.667,1.667,0,1,1,1.667,1.667,1.666,1.666,0,0,1-1.667-1.667m-8.334,0a1.667,1.667,0,1,1,1.667,1.667,1.666,1.666,0,0,1-1.667-1.667m87.392-4.281a1.667,1.667,0,1,1,1.667,1.667,1.666,1.666,0,0,1-1.667-1.667m0-8.334a1.667,1.667,0,1,1,1.667,1.667,1.666,1.666,0,0,1-1.667-1.667m0-8.334a1.667,1.667,0,1,1,1.667,1.667,1.666,1.666,0,0,1-1.667-1.667m0-8.334a1.667,1.667,0,1,1,1.667,1.667,1.666,1.666,0,0,1-1.667-1.667m0-8.334a1.667,1.667,0,1,1,1.667,1.667,1.665,1.665,0,0,1-1.667-1.667" transform="translate(-1332.767 -433.539)" fill="#fbb9cc"/>
        <path id="패스_3599" data-name="패스 3599" d="M1346.271,708.022l3.021,4.672a7.453,7.453,0,0,1-4.331,1.488,4.835,4.835,0,0,1-4.85-6.16,8.028,8.028,0,0,1,7.469-6.16l-1.309,6.16" transform="translate(-1118.904 -586.069)" fill="#fbb9cc"/>
        <path id="패스_3600" data-name="패스 3600" d="M1394.34,704.289a7.955,7.955,0,0,1-3.138,4.672l-3.021-4.672,1.309-6.16a4.835,4.835,0,0,1,4.85,6.16" transform="translate(-1159.159 -582.952)" fill="#f45183"/>
        <path id="패스_3601" data-name="패스 3601" d="M1341.68,793.992h-13.615l.354-1.667h13.615Z" transform="translate(-1108.961 -661.608)" fill="#cfc6ce"/>
        <path id="패스_3602" data-name="패스 3602" d="M1349.17,815.429h-7.683l.354-1.667h7.683Z" transform="translate(-1120.169 -679.508)" fill="#cfc6ce"/>
        <path id="패스_3603" data-name="패스 3603" d="M1586.255,675.855l1.777,5.9h3.5l-4.752,1.669Z" transform="translate(-1324.556 -564.353)" fill="#f0ebf1"/>
        <path id="패스_3604" data-name="패스 3604" d="M1511.686,698.479h-12.619l.354-1.667h12.619Z" transform="translate(-1251.751 -581.852)" fill="#f0ebf1"/>
        <path id="패스_3605" data-name="패스 3605" d="M1503.516,722.75h-9.608l.354-1.667h9.608Z" transform="translate(-1247.444 -602.119)" fill="#f0ebf1"/>
        <path id="패스_3606" data-name="패스 3606" d="M1565.026,722.75h-3.77l.354-1.667h3.77Z" transform="translate(-1303.68 -602.119)" fill="#f0ebf1"/>
        <path id="패스_3607" data-name="패스 3607" d="M1491.585,747.021h-2.836l.354-1.667h2.836Z" transform="translate(-1243.136 -622.386)" fill="#f0ebf1"/>
        <path id="패스_3608" data-name="패스 3608" d="M1521.017,747.021h-9.268l.354-1.667h9.268Z" transform="translate(-1262.341 -622.386)" fill="#f0ebf1"/>
        <path id="패스_3609" data-name="패스 3609" d="M1498.939,771.293H1483.59l.354-1.667h15.349Z" transform="translate(-1238.828 -642.654)" fill="#f0ebf1"/>
        <path id="패스_3610" data-name="패스 3610" d="M1484.449,795.564h-6.018l.354-1.667h6.018Z" transform="translate(-1234.52 -662.92)" fill="#f0ebf1"/>
        <path id="패스_3611" data-name="패스 3611" d="M1530.342,795.564h-9.659l.354-1.667h9.659Z" transform="translate(-1269.801 -662.92)" fill="#f0ebf1"/>
        <path id="패스_3612" data-name="패스 3612" d="M1484.4,819.836h-11.133l.354-1.667h11.133Z" transform="translate(-1230.211 -683.188)" fill="#f0ebf1"/>
      </g>
    </g>
  </g>
</svg>
