<svg id="mypage" xmlns="http://www.w3.org/2000/svg" width="32" height="32" viewBox="0 0 32 32">
  <g id="profile-circle">
    <path id="Vector" d="M26.667,13.333A13.333,13.333,0,1,0,4.307,23.12c0,.013,0,.013-.013.027.133.133.293.24.427.36a2.794,2.794,0,0,0,.227.187c.24.2.507.387.76.573.093.067.173.12.267.187a7.937,7.937,0,0,0,.8.48c.093.053.2.12.293.173a8.124,8.124,0,0,0,.84.4,3.409,3.409,0,0,0,.32.147q.44.18.88.32a3,3,0,0,0,.32.107c.32.093.64.173.96.253a1.892,1.892,0,0,0,.293.067,10.552,10.552,0,0,0,1.133.173.669.669,0,0,1,.16.027c.453.04.907.067,1.36.067s.907-.027,1.347-.067a.669.669,0,0,0,.16-.027,10.552,10.552,0,0,0,1.133-.173c.093-.013.187-.053.293-.067.32-.08.653-.147.96-.253a3,3,0,0,1,.32-.107c.293-.107.6-.2.88-.32a3.409,3.409,0,0,0,.32-.147q.42-.18.84-.4c.107-.053.2-.12.293-.173.267-.16.533-.307.8-.48a3.235,3.235,0,0,0,.267-.187c.267-.187.52-.373.76-.573a2.794,2.794,0,0,1,.227-.187c.147-.12.293-.24.427-.36,0-.013,0-.013-.013-.027A13.261,13.261,0,0,0,26.667,13.333ZM19.92,19.96a12.829,12.829,0,0,0-13.173,0A6.439,6.439,0,0,0,5.28,21.293a11.333,11.333,0,1,1,16.107,0A6.17,6.17,0,0,0,19.92,19.96Z" transform="translate(2.667 2.667)" fill="#292d32"/>
    <path id="Vector-2" data-name="Vector" d="M5,0a4.994,4.994,0,0,0-.067,9.987h.24A4.995,4.995,0,0,0,5,0Z" transform="translate(11 9.24)" fill="#292d32"/>
    <path id="Vector-3" data-name="Vector" d="M0,0H32V32H0Z" transform="translate(32 32) rotate(180)" fill="none" opacity="0"/>
  </g>
</svg>
