<svg xmlns="http://www.w3.org/2000/svg" width="1295.233" height="134.914" viewBox="0 0 1295.233 134.914">
    <g data-name="그룹 1965">
        <path data-name="패스 2131" d="M109.365 401.4c0-38.961 28.818-67.457 67.94-67.457s68.1 28.5 68.1 67.457-28.818 67.457-67.94 67.457-68.1-28.5-68.1-67.457m119.137 0c0-30.429-21.734-52-51.2-52s-51.035 21.573-51.035 52c0 30.267 21.734 52 51.2 52 29.3 0 51.036-21.734 51.036-52" transform="translate(-109.365 -333.941)" style="fill:#ff3d00"/>
        <path data-name="패스 2132" d="m320.223 3.059-39.282 128.957h-17.066L232.803 29.14l-31.232 102.876h-17.067L145.383 3.059h17.552l30.589 103.359L223.948 3.059h18.032l30.589 103.681 30.59-103.681z"/>
        <path data-name="패스 2133" d="M460.021 337 538.1 437.461V336.195h17.065v128.956h-15.934l-78.083-100.46v101.266h-16.9V337z" transform="translate(-109.365 -333.941)" style="fill:#ff3d00"/>
        <path data-name="패스 2134" d="m677.156 3.059-39.281 128.957h-17.067L589.735 29.14l-31.23 102.876h-17.07L502.317 3.059h17.548l30.589 103.359L580.881 3.059h18.032l30.589 103.681 30.59-103.681z"/>
        <path data-name="패스 2135" d="M783.418 3.059v14.973h-74.7v40.57h69.067v14.973h-69.069v43.468h76.151v14.973h-93.055V3.059z"/>
        <path data-name="패스 2136" d="M856.035 3.059c28.5 0 44.595 13.684 44.595 35.741 0 12.074-8.371 23.827-19.963 26.564 14.651 2.9 26.081 14.329 26.081 30.267 0 22.218-16.9 36.385-45.883 36.385h-57.48V3.059zM883.566 38.8c0-13.685-10.144-21.091-28.014-21.091h-35.263V59.89h35.258c17.87 0 28.014-7.4 28.014-21.09m6.117 56.831c0-14.168-11.27-21.734-29.3-21.734h-40.089v43.468h40.088c18.031 0 29.3-7.566 29.3-21.734"/>
        <path data-name="패스 2137" d="M1023.628 38.639h-17.393c-1.771-13.685-14.168-24.149-34.292-24.149-20.285 0-31.716 8.372-31.716 19.963 0 13.363 11.915 19.159 39.444 24.955 31.717 6.761 44.435 19 44.435 38.155 0 23.183-22.7 37.351-51.357 37.351-30.107 0-51.842-16.421-53.611-41.376h17.386c1.772 15.617 15.778 26.726 37.352 26.726 19.318 0 33-8.855 33-21.734 0-14.329-11.753-20.125-39.766-26.082-29.14-6.118-43.953-16.582-43.953-37.995S944.249 0 972.745 0c28.334 0 49.264 16.1 50.874 38.639"/>
        <path data-name="사각형 1959" transform="translate(1042.306 3.059)" style="fill:#ff3d00" d="M0 0h16.904v128.957H0z"/>
        <path data-name="패스 2138" d="M1248.591 352.133v113.823h-16.905V352.133h-46.366V337h109.48v15.134z" transform="translate(-109.365 -333.941)" style="fill:#ff3d00"/>
        <path data-name="패스 2139" d="M1202.178 3.059v128.957h93.057v-14.973h-76.151V73.575h69.067V58.602h-69.067V18.031h74.7V3.059z"/>
    </g>
</svg>
