<svg id="pin" xmlns="http://www.w3.org/2000/svg" width="32" height="32" viewBox="0 0 32 32">
  <g id="text">
    <path id="Vector" d="M0,0H32V32H0Z" transform="translate(32 32) rotate(180)" fill="none" opacity="0"/>
    <path id="pin-2" data-name="pin" d="M26.672,8,20.808,2.134A3.437,3.437,0,0,0,15.63,6.628l-.271.306-5.4,2.373L7.6,8.033A1.33,1.33,0,0,0,6,8.289L3.7,10.724a1.321,1.321,0,0,0,.027,1.851L9.355,18.2l-8.23,8.23v1.252H2.377l8.23-8.23,5.6,5.6a1.323,1.323,0,0,0,1.841.035L20.5,22.81a1.327,1.327,0,0,0,.264-1.61L19.478,18.83l2.33-5.007.476-.57A3.437,3.437,0,0,0,26.672,8Z" transform="translate(1.6 1.594)" fill="#666"/>
  </g>
</svg>
