<svg id="pw" xmlns="http://www.w3.org/2000/svg" width="24" height="24" viewBox="0 0 24 24">
  <rect id="사각형_3756" data-name="사각형 3756" width="24" height="24" fill="none"/>
  <path id="lock-solid" d="M17.973,9.66V7.188a4.736,4.736,0,0,0-4.62-4.828,4.736,4.736,0,0,0-4.62,4.828V9.66H7v9.818a1.155,1.155,0,0,0,1.155,1.155h10.4a1.155,1.155,0,0,0,1.155-1.155V9.66Zm-4.043,5.908v1.6H12.776V15.517a1.386,1.386,0,1,1,1.155.052ZM16.818,9.66H9.888V7.188a3.581,3.581,0,0,1,3.465-3.673,3.581,3.581,0,0,1,3.465,3.673Z" transform="translate(-1.171 0.44)" fill="#bbb"/>
</svg>
