<svg xmlns="http://www.w3.org/2000/svg" width="28" height="56" viewBox="0 0 28 56">
    <g data-name="그룹 95">
        <g data-name="그룹 93" transform="translate(-488 -409)">
            <circle data-name="타원 6" cx="14" cy="14" r="14" transform="translate(488 437)" style="fill:#ef6408"/>
            <path d="M14.467 5.322c-1.447 0-2.038-1.023-1.319-2.278a1.516 1.516 0 0 0-.56-2.07L11.206.183a1.334 1.334 0 0 0-1.822.48L9.3.814a1.389 1.389 0 0 1-2.63 0L6.578.663a1.312 1.312 0 0 0-1.806-.48L3.389.974a1.525 1.525 0 0 0-.56 2.078c.727 1.247.136 2.27-1.311 2.27A1.523 1.523 0 0 0 0 6.841v1.407a1.523 1.523 0 0 0 1.519 1.519c1.447 0 2.038 1.023 1.311 2.278a1.516 1.516 0 0 0 .56 2.07l1.383.791a1.334 1.334 0 0 0 1.822-.48l.088-.152a1.389 1.389 0 0 1 2.63 0l.088.152a1.334 1.334 0 0 0 1.822.48l1.383-.791a1.518 1.518 0 0 0 .56-2.07c-.727-1.255-.136-2.278 1.311-2.278A1.523 1.523 0 0 0 16 8.248V6.841a1.535 1.535 0 0 0-1.533-1.519zm-6.474 4.82a2.6 2.6 0 1 1 2.6-2.6 2.6 2.6 0 0 1-2.6 2.6z" transform="translate(494.006 443.455)" style="fill:#fff" data-name="vuesax/bold/setting-2"/>
        </g>
        <g data-name="그룹 91" transform="translate(-488 -407)">
            <circle data-name="타원 6" cx="14" cy="14" r="14" transform="translate(488 407)" style="fill:#eee"/>
            <g data-name="vuesax/bold/setting-2">
                <g data-name="setting-2">
                    <path data-name="Vector" d="M14.467 5.322c-1.447 0-2.038-1.023-1.319-2.278a1.516 1.516 0 0 0-.56-2.07L11.206.183a1.334 1.334 0 0 0-1.822.48L9.3.814a1.389 1.389 0 0 1-2.63 0L6.578.663a1.312 1.312 0 0 0-1.806-.48L3.389.974a1.525 1.525 0 0 0-.56 2.078c.727 1.247.136 2.27-1.311 2.27A1.523 1.523 0 0 0 0 6.841v1.407a1.523 1.523 0 0 0 1.519 1.519c1.447 0 2.038 1.023 1.311 2.278a1.516 1.516 0 0 0 .56 2.07l1.383.791a1.334 1.334 0 0 0 1.822-.48l.088-.152a1.389 1.389 0 0 1 2.63 0l.088.152a1.334 1.334 0 0 0 1.822.48l1.383-.791a1.518 1.518 0 0 0 .56-2.07c-.727-1.255-.136-2.278 1.311-2.278A1.523 1.523 0 0 0 16 8.248V6.841a1.535 1.535 0 0 0-1.533-1.519zm-6.474 4.82a2.6 2.6 0 1 1 2.6-2.6 2.6 2.6 0 0 1-2.6 2.6z" transform="translate(494.006 413.455)" style="fill:#666"/>
                </g>
            </g>
        </g>
    </g>
</svg>
