<svg id="setting_btn" xmlns="http://www.w3.org/2000/svg" width="32" height="32" viewBox="0 0 32 32">
  <circle id="타원_6" data-name="타원 6" cx="16" cy="16" r="16" fill="#fff"/>
  <g id="vuesax_bold_setting-2" data-name="vuesax/bold/setting-2" transform="translate(-292 -182)">
    <g id="setting-2" transform="translate(300 190)">
      <path id="Vector" d="M14.467,5.322c-1.447,0-2.038-1.023-1.319-2.278a1.516,1.516,0,0,0-.56-2.07L11.206.183a1.334,1.334,0,0,0-1.822.48L9.3.814a1.389,1.389,0,0,1-2.63,0L6.578.663A1.312,1.312,0,0,0,4.772.183L3.389.974a1.525,1.525,0,0,0-.56,2.078c.727,1.247.136,2.27-1.311,2.27A1.523,1.523,0,0,0,0,6.841V8.248A1.523,1.523,0,0,0,1.519,9.767c1.447,0,2.038,1.023,1.311,2.278a1.516,1.516,0,0,0,.56,2.07l1.383.791a1.334,1.334,0,0,0,1.822-.48l.088-.152a1.389,1.389,0,0,1,2.63,0l.088.152a1.334,1.334,0,0,0,1.822.48l1.383-.791a1.518,1.518,0,0,0,.56-2.07c-.727-1.255-.136-2.278,1.311-2.278a1.523,1.523,0,0,0,1.519-1.519V6.841A1.535,1.535,0,0,0,14.467,5.322Zm-6.474,4.82a2.6,2.6,0,1,1,2.6-2.6A2.6,2.6,0,0,1,7.993,10.142Z" transform="translate(0.006 0.455)" fill="#bbb"/>
      <path id="Vector-2" data-name="Vector" d="M0,0H16V16H0Z" transform="translate(16 16) rotate(180)" fill="none" opacity="0"/>
    </g>
  </g>
</svg>
