<svg xmlns="http://www.w3.org/2000/svg" width="32.086" height="32.086" viewBox="0 0 32.086 32.086">
  <g id="share_btn" transform="translate(0.043 0.043)">
    <path id="share" d="M13.918,4.473a.478.478,0,0,1-.148.349L9.794,8.8a.5.5,0,0,1-.847-.349V6.462H7.208q-.761,0-1.363.047a9.889,9.889,0,0,0-1.2.167,4.433,4.433,0,0,0-1.033.33,3.656,3.656,0,0,0-.819.54,2.7,2.7,0,0,0-.621.784A4.218,4.218,0,0,0,1.8,9.405a6.627,6.627,0,0,0-.136,1.406q0,.427.039.955a1.606,1.606,0,0,0,.019.182,1.588,1.588,0,0,1,.019.206.289.289,0,0,1-.066.194.227.227,0,0,1-.182.078.266.266,0,0,1-.218-.132.867.867,0,0,1-.1-.171q-.046-.1-.1-.233L.986,11.7A9.326,9.326,0,0,1,0,8.2,7.07,7.07,0,0,1,.412,5.615q1.258-3.13,6.8-3.13h1.74V.5A.478.478,0,0,1,9.095.148a.487.487,0,0,1,.7,0l3.977,3.977a.478.478,0,0,1,.148.349Z" transform="translate(9.041 10.716)" fill="#fff"/>
    <g id="그룹_5683" data-name="그룹 5683">
      <circle id="타원_12" data-name="타원 12" cx="16" cy="16" r="16" transform="translate(0)" fill="none"/>
      <circle id="타원_13" data-name="타원 13" cx="15.543" cy="15.543" r="15.543" transform="translate(0.457 0.457)" fill="none" stroke="#e7e7ec" stroke-width="1"/>
    </g>
  </g>
</svg>
