<svg xmlns="http://www.w3.org/2000/svg" width="32.157" height="32.086" viewBox="0 0 32.157 32.086">
  <g id="sns_twitter_btn" transform="translate(0 0.043)">
    <g id="그룹_28" data-name="그룹 28" transform="translate(0)">
      <circle id="타원_8" data-name="타원 8" cx="16" cy="16" r="16" transform="translate(0)" fill="none"/>
      <circle id="타원_9" data-name="타원 9" cx="15.543" cy="15.543" r="15.543" transform="translate(0.571 0.457)" fill="none" stroke="#e7e7ec" stroke-width="1"/>
    </g>
    <path id="패스_157" data-name="패스 157" d="M82.475,22.165a5.56,5.56,0,0,0,1.3-1.35,4.923,4.923,0,0,1-1.5.4,2.565,2.565,0,0,0,1.15-1.45,5.541,5.541,0,0,1-1.65.65,2.635,2.635,0,0,0-4.55,1.8,2.465,2.465,0,0,0,.075.6,7.616,7.616,0,0,1-5.425-2.75,2.553,2.553,0,0,0-.35,1.325A2.583,2.583,0,0,0,72.7,23.565a2.766,2.766,0,0,1-1.2-.325v.025a2.628,2.628,0,0,0,2.1,2.575,2.93,2.93,0,0,1-.675.1,3.394,3.394,0,0,1-.5-.05,2.613,2.613,0,0,0,2.45,1.825,5.278,5.278,0,0,1-3.25,1.125A4.861,4.861,0,0,1,71,28.79a7.457,7.457,0,0,0,11.475-6.275Z" transform="translate(-60.828 -8.536)" fill="#fff"/>
  </g>
</svg>
