<svg xmlns="http://www.w3.org/2000/svg" width="32.386" height="32.086" viewBox="0 0 32.386 32.086">
  <g id="sns_instagram_btn" transform="translate(0.386 0.043)">
    <g id="그룹_29" data-name="그룹 29">
      <circle id="타원_10" data-name="타원 10" cx="16" cy="16" r="16" transform="translate(0)" fill="none"/>
      <circle id="타원_11" data-name="타원 11" cx="15.543" cy="15.543" r="15.543" transform="translate(0.114 0.457)" fill="none" stroke="#e7e7ec" stroke-width="1"/>
    </g>
    <path id="패스_158" data-name="패스 158" d="M121.6,21.851a2.875,2.875,0,1,0,2.875,2.875A2.876,2.876,0,0,0,121.6,21.851Zm0,4.75a1.873,1.873,0,0,1-1.875-1.875A1.862,1.862,0,1,1,121.6,26.6Zm3.65-4.85a.675.675,0,1,0-.675.675A.672.672,0,0,0,125.249,21.751Zm1.9.675a3.088,3.088,0,0,0-3.249-3.25c-.925-.05-3.7-.05-4.625,0a3.414,3.414,0,0,0-2.35.9,3.372,3.372,0,0,0-.9,2.35c-.049.925-.049,3.7,0,4.625a3.089,3.089,0,0,0,3.25,3.25c.925.05,3.7.05,4.625,0a3.371,3.371,0,0,0,2.35-.9,3.411,3.411,0,0,0,.9-2.35C127.2,26.126,127.2,23.351,127.149,22.426Zm-1.2,5.6A1.855,1.855,0,0,1,124.9,29.1a12.1,12.1,0,0,1-3.3.225,11.967,11.967,0,0,1-3.3-.225,1.9,1.9,0,0,1-1.075-1.075,11.972,11.972,0,0,1-.225-3.3,12.109,12.109,0,0,1,.225-3.3,1.929,1.929,0,0,1,1.075-1.05,11.966,11.966,0,0,1,3.3-.225,12.1,12.1,0,0,1,3.3.225,1.884,1.884,0,0,1,1.051,1.05,12.109,12.109,0,0,1,.225,3.3A11.972,11.972,0,0,1,125.949,28.026Z" transform="translate(-105.586 -8.498)" fill="#fff"/>
  </g>
</svg>
