<svg xmlns="http://www.w3.org/2000/svg" width="36" height="72" viewBox="0 0 36 72">
    <defs>
        <clipPath id="8sdi1334la">
            <path data-name="사각형 9" style="fill:none" d="M0 0h36v36H0z"/>
        </clipPath>
        <clipPath id="hz395xnpbb">
            <path data-name="사각형 9" style="fill:#ef6408" d="M0 0h36v36H0z"/>
        </clipPath>
    </defs>
    <g data-name="그룹 1780">
        <g data-name="그룹 4">
            <g data-name="그룹 3" style="clip-path:url(#8sdi1334la)">
                <path data-name="패스 1" d="M31.093 5.863a6.372 6.372 0 0 0-1.62-1.62 9.215 9.215 0 0 0-5.52-1.575h-12.57a8.609 8.609 0 0 0-.885.045c-4.92.315-7.83 3.51-7.83 8.67v12.57a9.215 9.215 0 0 0 1.575 5.52 6.372 6.372 0 0 0 1.62 1.62 8.666 8.666 0 0 0 4.637 1.545c.285.015.585.03.885.03h12.57c5.46 0 8.715-3.255 8.715-8.715v-12.57a9.215 9.215 0 0 0-1.575-5.52m-3.3 7.155a1.125 1.125 0 0 1-2.25 0v-1.77a.871.871 0 0 0-.87-.87h-5.88v14.58h2.67a1.125 1.125 0 0 1 0 2.25h-7.592a1.125 1.125 0 0 1 0-2.25h2.67V10.377h-5.88a.871.871 0 0 0-.87.87v1.771a1.125 1.125 0 1 1-2.25 0v-1.77a3.118 3.118 0 0 1 3.114-3.121h14a3.118 3.118 0 0 1 3.12 3.115v1.775z" transform="translate(.333 .333)" style="fill:#666"/>
            </g>
        </g>
        <g data-name="그룹 1765">
            <g data-name="그룹 3" style="clip-path:url(#hz395xnpbb)" transform="translate(0 36)">
                <path data-name="패스 1" d="M31.093 5.863a6.372 6.372 0 0 0-1.62-1.62 9.215 9.215 0 0 0-5.52-1.575h-12.57a8.609 8.609 0 0 0-.885.045c-4.92.315-7.83 3.51-7.83 8.67v12.57a9.215 9.215 0 0 0 1.575 5.52 6.372 6.372 0 0 0 1.62 1.62 8.666 8.666 0 0 0 4.637 1.545c.285.015.585.03.885.03h12.57c5.46 0 8.715-3.255 8.715-8.715v-12.57a9.215 9.215 0 0 0-1.575-5.52m-3.3 7.155a1.125 1.125 0 0 1-2.25 0v-1.77a.871.871 0 0 0-.87-.87h-5.88v14.58h2.67a1.125 1.125 0 0 1 0 2.25h-7.592a1.125 1.125 0 0 1 0-2.25h2.67V10.377h-5.88a.871.871 0 0 0-.87.87v1.771a1.125 1.125 0 1 1-2.25 0v-1.77a3.118 3.118 0 0 1 3.114-3.121h14a3.118 3.118 0 0 1 3.12 3.115v1.775z" transform="translate(.333 .333)" style="fill:#ef6408"/>
            </g>
        </g>
    </g>
</svg>
