<svg id="text" xmlns="http://www.w3.org/2000/svg" width="32" height="32" viewBox="0 0 32 32">
  <g id="text-2" data-name="text">
    <path id="Vector" d="M25.267,2.84a5.685,5.685,0,0,0-1.44-1.44A8.19,8.19,0,0,0,18.92,0H7.747A7.577,7.577,0,0,0,6.96.04C2.587.32,0,3.16,0,7.747V18.92a8.19,8.19,0,0,0,1.4,4.907,5.685,5.685,0,0,0,1.44,1.44A7.705,7.705,0,0,0,6.96,26.64c.253.013.52.027.787.027H18.92c4.853,0,7.747-2.893,7.747-7.747V7.747A8.19,8.19,0,0,0,25.267,2.84ZM22.333,9.2a1,1,0,1,1-2,0V7.627a.774.774,0,0,0-.773-.773H14.333v12.96h2.373a1,1,0,0,1,0,2H9.96a1,1,0,0,1,0-2h2.373V6.853H7.107a.774.774,0,0,0-.773.773V9.2a1,1,0,1,1-2,0V7.627A2.771,2.771,0,0,1,7.107,4.853h12.44A2.771,2.771,0,0,1,22.32,7.627V9.2Z" transform="translate(2.667 2.667)" fill="#666"/>
    <path id="Vector-2" data-name="Vector" d="M0,0H32V32H0Z" transform="translate(32 32) rotate(180)" fill="none" opacity="0"/>
  </g>
</svg>
