<svg id="todolist_selected" xmlns="http://www.w3.org/2000/svg" width="32" height="32" viewBox="0 0 32 32">
  <g id="task-square">
    <path id="Vector" d="M18.92,0H7.747C2.893,0,0,2.893,0,7.747V18.92c0,4.853,2.893,7.747,7.747,7.747H18.92c4.853,0,7.747-2.893,7.747-7.747V7.747C26.667,2.893,23.773,0,18.92,0ZM10.627,17.2l-3,3a.989.989,0,0,1-.707.293.967.967,0,0,1-.707-.293l-1-1a.982.982,0,0,1,0-1.413,1.006,1.006,0,0,1,1.413,0l.293.293,2.293-2.293A1,1,0,0,1,10.627,17.2Zm0-9.333-3,3a.989.989,0,0,1-.707.293.967.967,0,0,1-.707-.293l-1-1a.982.982,0,0,1,0-1.413,1.006,1.006,0,0,1,1.413,0l.293.293L9.213,6.453a1,1,0,0,1,1.413,1.413Zm10.12,11.627h-7a1,1,0,0,1,0-2h7a1,1,0,0,1,0,2Zm0-9.333h-7a1,1,0,0,1,0-2h7a1,1,0,0,1,0,2Z" transform="translate(2.667 2.667)" fill="#ef6408"/>
    <path id="Vector-2" data-name="Vector" d="M0,0H32V32H0Z" transform="translate(32 32) rotate(180)" fill="none" opacity="0"/>
  </g>
</svg>
