<svg xmlns="http://www.w3.org/2000/svg" width="36" height="72" viewBox="0 0 36 72">
    <defs>
        <clipPath id="fnj8spti4a">
            <path data-name="사각형 11" style="fill:none" d="M0 0h36v36H0z"/>
        </clipPath>
        <clipPath id="na4er6m8fb">
            <path data-name="사각형 11" style="fill:#ef6408" d="M0 0h36v36H0z"/>
        </clipPath>
    </defs>
    <g data-name="그룹 1782">
        <g data-name="그룹 8">
            <g data-name="그룹 7" style="clip-path:url(#fnj8spti4a)">
                <path data-name="패스 5" d="M23.952 2.667h-12.57c-5.461 0-8.715 3.255-8.715 8.715v12.555c0 5.475 3.255 8.73 8.715 8.73h12.555c5.46 0 8.715-3.255 8.715-8.715v-12.57c.015-5.461-3.241-8.715-8.7-8.715m-2.3 17.595-1.92 1.11-1.92 1.11c-2.475 1.425-4.5.255-4.5-2.6v-4.44c0-2.865 2.025-4.02 4.5-2.6l1.92 1.11 1.92 1.11c2.475 1.424 2.475 3.764 0 5.19" transform="translate(.333 .333)" style="fill:#666"/>
            </g>
        </g>
        <g data-name="그룹 1767">
            <g data-name="그룹 7" style="clip-path:url(#na4er6m8fb)" transform="translate(0 36)">
                <path data-name="패스 5" d="M23.952 2.667h-12.57c-5.461 0-8.715 3.255-8.715 8.715v12.555c0 5.475 3.255 8.73 8.715 8.73h12.555c5.46 0 8.715-3.255 8.715-8.715v-12.57c.015-5.461-3.241-8.715-8.7-8.715m-2.3 17.595-1.92 1.11-1.92 1.11c-2.475 1.425-4.5.255-4.5-2.6v-4.44c0-2.865 2.025-4.02 4.5-2.6l1.92 1.11 1.92 1.11c2.475 1.424 2.475 3.764 0 5.19" transform="translate(.333 .333)" style="fill:#ef6408"/>
            </g>
        </g>
    </g>
</svg>
