<svg id="video_selected" xmlns="http://www.w3.org/2000/svg" width="32" height="32" viewBox="0 0 32 32">
  <g id="video-square">
    <path id="Vector" d="M18.92,0H7.747C2.893,0,0,2.893,0,7.747v11.16c0,4.867,2.893,7.76,7.747,7.76h11.16c4.853,0,7.747-2.893,7.747-7.747V7.747C26.667,2.893,23.773,0,18.92,0ZM16.88,15.64l-1.707.987-1.707.987c-2.2,1.267-4,.227-4-2.307V11.36c0-2.547,1.8-3.573,4-2.307l1.707.987,1.707.987C19.08,12.293,19.08,14.373,16.88,15.64Z" transform="translate(2.667 2.667)" fill="#ef6408"/>
    <path id="Vector-2" data-name="Vector" d="M0,0H32V32H0Z" fill="none" opacity="0"/>
  </g>
</svg>
