<svg id="view" xmlns="http://www.w3.org/2000/svg" width="20" height="20" viewBox="0 0 20 20">
  <path id="Vector" d="M16.042,4.767C14.117,1.742,11.3,0,8.333,0A8.069,8.069,0,0,0,4.092,1.242,11.128,11.128,0,0,0,.625,4.767a4.809,4.809,0,0,0,0,4.742c1.925,3.033,4.742,4.767,7.708,4.767a8.069,8.069,0,0,0,4.242-1.242,11.128,11.128,0,0,0,3.467-3.525A4.809,4.809,0,0,0,16.042,4.767ZM8.333,10.508A3.367,3.367,0,1,1,11.7,7.142,3.363,3.363,0,0,1,8.333,10.508Z" transform="translate(1.667 2.858)" fill="#bbb"/>
  <path id="Vector-2" data-name="Vector" d="M2.375,0A2.379,2.379,0,1,0,4.758,2.383,2.381,2.381,0,0,0,2.375,0Z" transform="translate(7.625 7.617)" fill="#bbb"/>
  <path id="Vector-3" data-name="Vector" d="M0,0H20V20H0Z" transform="translate(20 20) rotate(180)" fill="none" opacity="0"/>
</svg>
